<svg width="274" height="219" viewBox="0 0 274 219" fill="none" xmlns="http://www.w3.org/2000/svg">
<g opacity="0.822661">
<ellipse cx="125.482" cy="142.399" rx="0.418857" ry="0.325177" fill="#0062FF"/>
<ellipse cx="128.893" cy="141.331" rx="0.418857" ry="0.325177" fill="#0062FF"/>
<path d="M101.966 149.553C101.966 149.367 102.146 149.228 102.385 149.228C102.625 149.228 102.804 149.367 102.804 149.553C102.804 149.739 102.625 149.878 102.385 149.878C102.146 149.878 101.966 149.739 101.966 149.553Z" fill="#0062FF"/>
<path d="M78.6899 144.165C78.6899 143.979 78.8695 143.839 79.1088 143.839C79.3481 143.839 79.5277 143.979 79.5277 144.165C79.5277 144.35 79.3481 144.49 79.1088 144.49C78.8695 144.49 78.6899 144.35 78.6899 144.165Z" fill="#0062FF"/>
<ellipse cx="102.684" cy="132.365" rx="0.418857" ry="0.325177" fill="#0062FF"/>
<ellipse cx="105.557" cy="123.493" rx="0.418857" ry="0.325177" fill="#0062FF"/>
<ellipse cx="63.7309" cy="129.067" rx="0.418857" ry="0.325177" fill="#0062FF"/>
<ellipse cx="61.3969" cy="122.982" rx="0.418857" ry="0.325177" fill="#0062FF"/>
<path d="M91.9736 133.294C91.9736 133.108 92.1531 132.969 92.3925 132.969C92.6318 132.969 92.8113 133.108 92.8113 133.294C92.8113 133.48 92.6318 133.619 92.3925 133.619C92.1531 133.619 91.9736 133.48 91.9736 133.294Z" fill="#0062FF"/>
<path d="M31 167.02C31 166.834 31.1795 166.695 31.4189 166.695C31.6582 166.695 31.8377 166.834 31.8377 167.02C31.8377 167.206 31.6582 167.345 31.4189 167.345C31.1795 167.345 31 167.159 31 167.02Z" fill="#0062FF"/>
<path d="M59.8413 90.4638C59.8413 90.278 60.0208 90.1387 60.2602 90.1387C60.4995 90.1387 60.679 90.278 60.679 90.4638C60.679 90.6497 60.4995 90.789 60.2602 90.789C60.0208 90.789 59.8413 90.6497 59.8413 90.4638Z" fill="#0062FF"/>
<path d="M147.801 127.859C147.801 127.673 147.981 127.534 148.22 127.534C148.459 127.534 148.639 127.673 148.639 127.859C148.639 128.045 148.459 128.184 148.22 128.184C147.981 128.138 147.801 127.999 147.801 127.859Z" fill="#0062FF"/>
<path d="M94.9058 194.288C94.9058 194.102 95.0853 193.963 95.3246 193.963C95.564 193.963 95.7435 194.102 95.7435 194.288C95.7435 194.474 95.564 194.613 95.3246 194.613C95.0853 194.613 94.9058 194.474 94.9058 194.288Z" fill="#0062FF"/>
<path d="M48.1733 127.72C48.1733 127.534 48.3528 127.395 48.5922 127.395C48.8315 127.395 49.0111 127.534 49.0111 127.72C49.0111 127.906 48.8315 128.045 48.5922 128.045C48.3528 128.045 48.1733 127.906 48.1733 127.72Z" fill="#0062FF"/>
<ellipse cx="127.337" cy="137.382" rx="0.418857" ry="0.325177" fill="#0062FF"/>
<ellipse cx="62.5341" cy="171.433" rx="0.418857" ry="0.325177" fill="#0062FF"/>
<path d="M122.67 171.479C122.67 171.294 122.849 171.154 123.089 171.154C123.328 171.154 123.508 171.294 123.508 171.479C123.508 171.665 123.328 171.805 123.089 171.805C122.849 171.805 122.67 171.665 122.67 171.479Z" fill="#0062FF"/>
<path d="M51.2246 196.518C51.2246 196.332 51.4041 196.193 51.6435 196.193C51.8828 196.193 52.0623 196.332 52.0623 196.518C52.0623 196.704 51.8828 196.843 51.6435 196.843C51.4041 196.843 51.2246 196.704 51.2246 196.518Z" fill="#0062FF"/>
<ellipse cx="119.379" cy="148.067" rx="0.418857" ry="0.325177" fill="#0062FF"/>
<ellipse cx="116.482" cy="131.399" rx="0.418857" ry="0.325177" fill="#FF1E1E"/>
<ellipse cx="119.893" cy="130.331" rx="0.418857" ry="0.325177" fill="#FF1E1E"/>
<path d="M92.9663 138.553C92.9663 138.367 93.1458 138.228 93.3852 138.228C93.6245 138.228 93.804 138.367 93.804 138.553C93.804 138.739 93.6245 138.878 93.3852 138.878C93.1458 138.878 92.9663 138.739 92.9663 138.553Z" fill="#FF1E1E"/>
<path d="M69.6899 133.165C69.6899 132.979 69.8695 132.839 70.1088 132.839C70.3481 132.839 70.5277 132.979 70.5277 133.165C70.5277 133.35 70.3481 133.49 70.1088 133.49C69.8695 133.49 69.6899 133.35 69.6899 133.165Z" fill="#FF1E1E"/>
<ellipse cx="93.6845" cy="121.365" rx="0.418857" ry="0.325177" fill="#FF1E1E"/>
<ellipse cx="96.5565" cy="112.493" rx="0.418857" ry="0.325177" fill="#FF1E1E"/>
<ellipse cx="54.7309" cy="118.067" rx="0.418857" ry="0.325177" fill="#FF1E1E"/>
<ellipse cx="52.3969" cy="111.982" rx="0.418857" ry="0.325177" fill="#FF1E1E"/>
<path d="M82.9736 122.294C82.9736 122.108 83.1531 121.969 83.3925 121.969C83.6318 121.969 83.8113 122.108 83.8113 122.294C83.8113 122.48 83.6318 122.619 83.3925 122.619C83.1531 122.619 82.9736 122.48 82.9736 122.294Z" fill="#FF1E1E"/>
<path d="M22 156.02C22 155.834 22.1795 155.695 22.4189 155.695C22.6582 155.695 22.8377 155.834 22.8377 156.02C22.8377 156.206 22.6582 156.345 22.4189 156.345C22.1795 156.345 22 156.159 22 156.02Z" fill="#FF1E1E"/>
<path d="M50.8413 79.4638C50.8413 79.278 51.0208 79.1387 51.2602 79.1387C51.4995 79.1387 51.679 79.278 51.679 79.4638C51.679 79.6497 51.4995 79.789 51.2602 79.789C51.0208 79.789 50.8413 79.6497 50.8413 79.4638Z" fill="#FF1E1E"/>
<path d="M138.801 116.859C138.801 116.673 138.981 116.534 139.22 116.534C139.459 116.534 139.639 116.673 139.639 116.859C139.639 117.045 139.459 117.184 139.22 117.184C138.981 117.138 138.801 116.999 138.801 116.859Z" fill="#FF1E1E"/>
<path d="M85.9058 183.288C85.9058 183.102 86.0853 182.963 86.3246 182.963C86.564 182.963 86.7435 183.102 86.7435 183.288C86.7435 183.474 86.564 183.613 86.3246 183.613C86.0853 183.613 85.9058 183.474 85.9058 183.288Z" fill="#FF1E1E"/>
<path d="M39.1733 116.72C39.1733 116.534 39.3528 116.395 39.5922 116.395C39.8315 116.395 40.0111 116.534 40.0111 116.72C40.0111 116.906 39.8315 117.045 39.5922 117.045C39.3528 117.045 39.1733 116.906 39.1733 116.72Z" fill="#FF1E1E"/>
<ellipse cx="118.337" cy="126.382" rx="0.418857" ry="0.325177" fill="#FF1E1E"/>
<ellipse cx="53.5341" cy="160.433" rx="0.418857" ry="0.325177" fill="#FF1E1E"/>
<path d="M113.67 160.479C113.67 160.294 113.849 160.154 114.089 160.154C114.328 160.154 114.508 160.294 114.508 160.479C114.508 160.665 114.328 160.805 114.089 160.805C113.849 160.805 113.67 160.665 113.67 160.479Z" fill="#FF1E1E"/>
<path d="M42.2246 185.518C42.2246 185.332 42.4041 185.193 42.6435 185.193C42.8828 185.193 43.0623 185.332 43.0623 185.518C43.0623 185.704 42.8828 185.843 42.6435 185.843C42.4041 185.843 42.2246 185.704 42.2246 185.518Z" fill="#FF1E1E"/>
<ellipse cx="110.379" cy="137.067" rx="0.418857" ry="0.325177" fill="#FF1E1E"/>
<ellipse cx="134.482" cy="144.399" rx="0.418857" ry="0.325177" fill="#00FFC6"/>
<ellipse cx="137.893" cy="143.331" rx="0.418857" ry="0.325177" fill="#00FFC6"/>
<path d="M110.966 151.553C110.966 151.367 111.146 151.228 111.385 151.228C111.625 151.228 111.804 151.367 111.804 151.553C111.804 151.739 111.625 151.878 111.385 151.878C111.146 151.878 110.966 151.739 110.966 151.553Z" fill="#00FFC6"/>
<path d="M87.6899 146.165C87.6899 145.979 87.8695 145.839 88.1088 145.839C88.3481 145.839 88.5277 145.979 88.5277 146.165C88.5277 146.35 88.3481 146.49 88.1088 146.49C87.8695 146.49 87.6899 146.35 87.6899 146.165Z" fill="#00FFC6"/>
<ellipse cx="111.684" cy="134.365" rx="0.418857" ry="0.325177" fill="#00FFC6"/>
<ellipse cx="114.557" cy="125.493" rx="0.418857" ry="0.325177" fill="#00FFC6"/>
<ellipse cx="72.7309" cy="131.067" rx="0.418857" ry="0.325177" fill="#00FFC6"/>
<ellipse cx="70.3969" cy="124.982" rx="0.418857" ry="0.325177" fill="#00FFC6"/>
<path d="M100.974 135.294C100.974 135.108 101.153 134.969 101.392 134.969C101.632 134.969 101.811 135.108 101.811 135.294C101.811 135.48 101.632 135.619 101.392 135.619C101.153 135.619 100.974 135.48 100.974 135.294Z" fill="#00FFC6"/>
<path d="M40 169.02C40 168.834 40.1795 168.695 40.4189 168.695C40.6582 168.695 40.8377 168.834 40.8377 169.02C40.8377 169.206 40.6582 169.345 40.4189 169.345C40.1795 169.345 40 169.159 40 169.02Z" fill="#00FFC6"/>
<path d="M68.8413 92.4638C68.8413 92.278 69.0208 92.1387 69.2602 92.1387C69.4995 92.1387 69.679 92.278 69.679 92.4638C69.679 92.6497 69.4995 92.789 69.2602 92.789C69.0208 92.789 68.8413 92.6497 68.8413 92.4638Z" fill="#00FFC6"/>
<path d="M156.801 129.859C156.801 129.673 156.981 129.534 157.22 129.534C157.459 129.534 157.639 129.673 157.639 129.859C157.639 130.045 157.459 130.184 157.22 130.184C156.981 130.138 156.801 129.999 156.801 129.859Z" fill="#00FFC6"/>
<path d="M103.906 196.288C103.906 196.102 104.085 195.963 104.325 195.963C104.564 195.963 104.743 196.102 104.743 196.288C104.743 196.474 104.564 196.613 104.325 196.613C104.085 196.613 103.906 196.474 103.906 196.288Z" fill="#00FFC6"/>
<path d="M57.1733 129.72C57.1733 129.534 57.3528 129.395 57.5922 129.395C57.8315 129.395 58.0111 129.534 58.0111 129.72C58.0111 129.906 57.8315 130.045 57.5922 130.045C57.3528 130.045 57.1733 129.906 57.1733 129.72Z" fill="#00FFC6"/>
<ellipse cx="136.337" cy="139.382" rx="0.418857" ry="0.325177" fill="#00FFC6"/>
<ellipse cx="71.5341" cy="173.433" rx="0.418857" ry="0.325177" fill="#00FFC6"/>
<path d="M131.67 173.479C131.67 173.294 131.849 173.154 132.089 173.154C132.328 173.154 132.508 173.294 132.508 173.479C132.508 173.665 132.328 173.805 132.089 173.805C131.849 173.805 131.67 173.665 131.67 173.479Z" fill="#00FFC6"/>
<path d="M60.2246 198.518C60.2246 198.332 60.4041 198.193 60.6435 198.193C60.8828 198.193 61.0623 198.332 61.0623 198.518C61.0623 198.704 60.8828 198.843 60.6435 198.843C60.4041 198.843 60.2246 198.704 60.2246 198.518Z" fill="#00FFC6"/>
<ellipse cx="128.379" cy="150.067" rx="0.418857" ry="0.325177" fill="#00FFC6"/>
<ellipse cx="106.482" cy="155.399" rx="0.418857" ry="0.325177" fill="#E500F7"/>
<ellipse cx="109.893" cy="154.331" rx="0.418857" ry="0.325177" fill="#E500F7"/>
<path d="M82.9663 162.553C82.9663 162.367 83.1458 162.228 83.3852 162.228C83.6245 162.228 83.804 162.367 83.804 162.553C83.804 162.739 83.6245 162.878 83.3852 162.878C83.1458 162.878 82.9663 162.739 82.9663 162.553Z" fill="#E500F7"/>
<path d="M59.6899 157.165C59.6899 156.979 59.8695 156.839 60.1088 156.839C60.3481 156.839 60.5277 156.979 60.5277 157.165C60.5277 157.35 60.3481 157.49 60.1088 157.49C59.8695 157.49 59.6899 157.35 59.6899 157.165Z" fill="#E500F7"/>
<ellipse cx="83.6845" cy="145.365" rx="0.418857" ry="0.325177" fill="#E500F7"/>
<ellipse cx="86.5565" cy="136.493" rx="0.418857" ry="0.325177" fill="#E500F7"/>
<ellipse cx="44.7309" cy="142.067" rx="0.418857" ry="0.325177" fill="#E500F7"/>
<ellipse cx="42.3969" cy="135.982" rx="0.418857" ry="0.325177" fill="#E500F7"/>
<path d="M72.9736 146.294C72.9736 146.108 73.1531 145.969 73.3925 145.969C73.6318 145.969 73.8113 146.108 73.8113 146.294C73.8113 146.48 73.6318 146.619 73.3925 146.619C73.1531 146.619 72.9736 146.48 72.9736 146.294Z" fill="#E500F7"/>
<path d="M12 180.02C12 179.834 12.1795 179.695 12.4189 179.695C12.6582 179.695 12.8377 179.834 12.8377 180.02C12.8377 180.206 12.6582 180.345 12.4189 180.345C12.1795 180.345 12 180.159 12 180.02Z" fill="#E500F7"/>
<path d="M40.8413 103.464C40.8413 103.278 41.0208 103.139 41.2602 103.139C41.4995 103.139 41.679 103.278 41.679 103.464C41.679 103.65 41.4995 103.789 41.2602 103.789C41.0208 103.789 40.8413 103.65 40.8413 103.464Z" fill="#E500F7"/>
<path d="M128.801 140.859C128.801 140.673 128.981 140.534 129.22 140.534C129.459 140.534 129.639 140.673 129.639 140.859C129.639 141.045 129.459 141.184 129.22 141.184C128.981 141.138 128.801 140.999 128.801 140.859Z" fill="#E500F7"/>
<path d="M75.9058 207.288C75.9058 207.102 76.0853 206.963 76.3246 206.963C76.564 206.963 76.7435 207.102 76.7435 207.288C76.7435 207.474 76.564 207.613 76.3246 207.613C76.0853 207.613 75.9058 207.474 75.9058 207.288Z" fill="#E500F7"/>
<path d="M29.1733 140.72C29.1733 140.534 29.3528 140.395 29.5922 140.395C29.8315 140.395 30.0111 140.534 30.0111 140.72C30.0111 140.906 29.8315 141.045 29.5922 141.045C29.3528 141.045 29.1733 140.906 29.1733 140.72Z" fill="#E500F7"/>
<ellipse cx="108.337" cy="150.382" rx="0.418857" ry="0.325177" fill="#E500F7"/>
<ellipse cx="43.5341" cy="184.433" rx="0.418857" ry="0.325177" fill="#E500F7"/>
<path d="M103.67 184.479C103.67 184.294 103.849 184.154 104.089 184.154C104.328 184.154 104.508 184.294 104.508 184.479C104.508 184.665 104.328 184.805 104.089 184.805C103.849 184.805 103.67 184.665 103.67 184.479Z" fill="#E500F7"/>
<path d="M32.2246 209.518C32.2246 209.332 32.4041 209.193 32.6435 209.193C32.8828 209.193 33.0623 209.332 33.0623 209.518C33.0623 209.704 32.8828 209.843 32.6435 209.843C32.4041 209.843 32.2246 209.704 32.2246 209.518Z" fill="#E500F7"/>
<ellipse cx="100.379" cy="161.067" rx="0.418857" ry="0.325177" fill="#E500F7"/>
</g>
<g opacity="0.489932">
<ellipse cx="137.482" cy="78.2606" rx="0.418857" ry="0.325177" fill="#0062FF"/>
<ellipse cx="140.893" cy="77.1922" rx="0.418857" ry="0.325177" fill="#0062FF"/>
<path d="M113.966 85.4145C113.966 85.2287 114.146 85.0894 114.385 85.0894C114.625 85.0894 114.804 85.2287 114.804 85.4145C114.804 85.6003 114.625 85.7397 114.385 85.7397C114.146 85.7397 113.966 85.6003 113.966 85.4145Z" fill="#0062FF"/>
<path d="M90.6899 80.0259C90.6899 79.84 90.8695 79.7007 91.1088 79.7007C91.3481 79.7007 91.5277 79.84 91.5277 80.0259C91.5277 80.2117 91.3481 80.351 91.1088 80.351C90.8695 80.351 90.6899 80.2117 90.6899 80.0259Z" fill="#0062FF"/>
<ellipse cx="114.684" cy="68.2265" rx="0.418857" ry="0.325177" fill="#0062FF"/>
<ellipse cx="117.557" cy="59.3539" rx="0.418857" ry="0.325177" fill="#0062FF"/>
<ellipse cx="75.7309" cy="64.9283" rx="0.418857" ry="0.325177" fill="#0062FF"/>
<ellipse cx="73.3969" cy="58.8429" rx="0.418857" ry="0.325177" fill="#0062FF"/>
<path d="M103.974 69.1556C103.974 68.9698 104.153 68.8304 104.392 68.8304C104.632 68.8304 104.811 68.9698 104.811 69.1556C104.811 69.3414 104.632 69.4808 104.392 69.4808C104.153 69.4808 103.974 69.3414 103.974 69.1556Z" fill="#0062FF"/>
<path d="M43 102.881C43 102.695 43.1795 102.556 43.4189 102.556C43.6582 102.556 43.8377 102.695 43.8377 102.881C43.8377 103.067 43.6582 103.206 43.4189 103.206C43.1795 103.206 43 103.021 43 102.881Z" fill="#0062FF"/>
<path d="M71.8413 26.3252C71.8413 26.1394 72.0208 26 72.2602 26C72.4995 26 72.679 26.1394 72.679 26.3252C72.679 26.511 72.4995 26.6504 72.2602 26.6504C72.0208 26.6504 71.8413 26.511 71.8413 26.3252Z" fill="#0062FF"/>
<path d="M159.801 63.7206C159.801 63.5347 159.981 63.3954 160.22 63.3954C160.459 63.3954 160.639 63.5347 160.639 63.7206C160.639 63.9064 160.459 64.0457 160.22 64.0457C159.981 63.9993 159.801 63.8599 159.801 63.7206Z" fill="#0062FF"/>
<path d="M106.906 130.15C106.906 129.964 107.085 129.824 107.325 129.824C107.564 129.824 107.743 129.964 107.743 130.15C107.743 130.335 107.564 130.475 107.325 130.475C107.085 130.475 106.906 130.335 106.906 130.15Z" fill="#0062FF"/>
<path d="M60.1733 63.5812C60.1733 63.3953 60.3528 63.256 60.5922 63.256C60.8315 63.256 61.0111 63.3953 61.0111 63.5812C61.0111 63.767 60.8315 63.9063 60.5922 63.9063C60.3528 63.9063 60.1733 63.767 60.1733 63.5812Z" fill="#0062FF"/>
<ellipse cx="139.337" cy="73.2436" rx="0.418857" ry="0.325177" fill="#0062FF"/>
<ellipse cx="74.5341" cy="107.294" rx="0.418857" ry="0.325177" fill="#0062FF"/>
<path d="M134.67 107.341C134.67 107.155 134.849 107.016 135.089 107.016C135.328 107.016 135.508 107.155 135.508 107.341C135.508 107.527 135.328 107.666 135.089 107.666C134.849 107.666 134.67 107.527 134.67 107.341Z" fill="#0062FF"/>
<path d="M63.2246 132.379C63.2246 132.194 63.4041 132.054 63.6435 132.054C63.8828 132.054 64.0623 132.194 64.0623 132.379C64.0623 132.565 63.8828 132.705 63.6435 132.705C63.4041 132.705 63.2246 132.565 63.2246 132.379Z" fill="#0062FF"/>
<ellipse cx="131.379" cy="83.928" rx="0.418857" ry="0.325177" fill="#0062FF"/>
<ellipse cx="128.482" cy="67.2606" rx="0.418857" ry="0.325177" fill="#FF1E1E"/>
<ellipse cx="131.893" cy="66.1922" rx="0.418857" ry="0.325177" fill="#FF1E1E"/>
<path d="M104.966 74.4145C104.966 74.2287 105.146 74.0894 105.385 74.0894C105.625 74.0894 105.804 74.2287 105.804 74.4145C105.804 74.6003 105.625 74.7397 105.385 74.7397C105.146 74.7397 104.966 74.6003 104.966 74.4145Z" fill="#FF1E1E"/>
<path d="M81.6899 69.0259C81.6899 68.84 81.8695 68.7007 82.1088 68.7007C82.3481 68.7007 82.5277 68.84 82.5277 69.0259C82.5277 69.2117 82.3481 69.351 82.1088 69.351C81.8695 69.351 81.6899 69.2117 81.6899 69.0259Z" fill="#FF1E1E"/>
<ellipse cx="105.684" cy="57.2265" rx="0.418857" ry="0.325177" fill="#FF1E1E"/>
<ellipse cx="108.557" cy="48.3539" rx="0.418857" ry="0.325177" fill="#FF1E1E"/>
<ellipse cx="66.7309" cy="53.9283" rx="0.418857" ry="0.325177" fill="#FF1E1E"/>
<ellipse cx="64.3969" cy="47.8429" rx="0.418857" ry="0.325177" fill="#FF1E1E"/>
<path d="M94.9736 58.1556C94.9736 57.9698 95.1531 57.8304 95.3925 57.8304C95.6318 57.8304 95.8113 57.9698 95.8113 58.1556C95.8113 58.3414 95.6318 58.4808 95.3925 58.4808C95.1531 58.4808 94.9736 58.3414 94.9736 58.1556Z" fill="#FF1E1E"/>
<path d="M34 91.8812C34 91.6954 34.1795 91.556 34.4189 91.556C34.6582 91.556 34.8377 91.6954 34.8377 91.8812C34.8377 92.067 34.6582 92.2064 34.4189 92.2064C34.1795 92.2064 34 92.0206 34 91.8812Z" fill="#FF1E1E"/>
<path d="M62.8413 15.3252C62.8413 15.1394 63.0208 15 63.2602 15C63.4995 15 63.679 15.1394 63.679 15.3252C63.679 15.511 63.4995 15.6504 63.2602 15.6504C63.0208 15.6504 62.8413 15.511 62.8413 15.3252Z" fill="#FF1E1E"/>
<path d="M150.801 52.7206C150.801 52.5347 150.981 52.3954 151.22 52.3954C151.459 52.3954 151.639 52.5347 151.639 52.7206C151.639 52.9064 151.459 53.0457 151.22 53.0457C150.981 52.9993 150.801 52.8599 150.801 52.7206Z" fill="#FF1E1E"/>
<path d="M97.9058 119.15C97.9058 118.964 98.0853 118.824 98.3246 118.824C98.564 118.824 98.7435 118.964 98.7435 119.15C98.7435 119.335 98.564 119.475 98.3246 119.475C98.0853 119.475 97.9058 119.335 97.9058 119.15Z" fill="#FF1E1E"/>
<path d="M51.1733 52.5812C51.1733 52.3953 51.3528 52.256 51.5922 52.256C51.8315 52.256 52.0111 52.3953 52.0111 52.5812C52.0111 52.767 51.8315 52.9063 51.5922 52.9063C51.3528 52.9063 51.1733 52.767 51.1733 52.5812Z" fill="#FF1E1E"/>
<ellipse cx="130.337" cy="62.2436" rx="0.418857" ry="0.325177" fill="#FF1E1E"/>
<ellipse cx="65.5341" cy="96.2943" rx="0.418857" ry="0.325177" fill="#FF1E1E"/>
<path d="M125.67 96.3408C125.67 96.155 125.849 96.0156 126.089 96.0156C126.328 96.0156 126.508 96.155 126.508 96.3408C126.508 96.5266 126.328 96.666 126.089 96.666C125.849 96.666 125.67 96.5266 125.67 96.3408Z" fill="#FF1E1E"/>
<path d="M54.2246 121.379C54.2246 121.194 54.4041 121.054 54.6435 121.054C54.8828 121.054 55.0623 121.194 55.0623 121.379C55.0623 121.565 54.8828 121.705 54.6435 121.705C54.4041 121.705 54.2246 121.565 54.2246 121.379Z" fill="#FF1E1E"/>
<ellipse cx="122.379" cy="72.928" rx="0.418857" ry="0.325177" fill="#FF1E1E"/>
<ellipse cx="146.482" cy="80.2606" rx="0.418857" ry="0.325177" fill="#00FFC6"/>
<ellipse cx="149.893" cy="79.1922" rx="0.418857" ry="0.325177" fill="#00FFC6"/>
<path d="M122.966 87.4145C122.966 87.2287 123.146 87.0894 123.385 87.0894C123.625 87.0894 123.804 87.2287 123.804 87.4145C123.804 87.6003 123.625 87.7397 123.385 87.7397C123.146 87.7397 122.966 87.6003 122.966 87.4145Z" fill="#00FFC6"/>
<path d="M99.6899 82.0259C99.6899 81.84 99.8695 81.7007 100.109 81.7007C100.348 81.7007 100.528 81.84 100.528 82.0259C100.528 82.2117 100.348 82.351 100.109 82.351C99.8695 82.351 99.6899 82.2117 99.6899 82.0259Z" fill="#00FFC6"/>
<ellipse cx="123.684" cy="70.2265" rx="0.418857" ry="0.325177" fill="#00FFC6"/>
<ellipse cx="126.557" cy="61.3539" rx="0.418857" ry="0.325177" fill="#00FFC6"/>
<ellipse cx="84.7309" cy="66.9283" rx="0.418857" ry="0.325177" fill="#00FFC6"/>
<ellipse cx="82.3969" cy="60.8429" rx="0.418857" ry="0.325177" fill="#00FFC6"/>
<path d="M112.974 71.1556C112.974 70.9698 113.153 70.8304 113.392 70.8304C113.632 70.8304 113.811 70.9698 113.811 71.1556C113.811 71.3414 113.632 71.4808 113.392 71.4808C113.153 71.4808 112.974 71.3414 112.974 71.1556Z" fill="#00FFC6"/>
<path d="M52 104.881C52 104.695 52.1795 104.556 52.4189 104.556C52.6582 104.556 52.8377 104.695 52.8377 104.881C52.8377 105.067 52.6582 105.206 52.4189 105.206C52.1795 105.206 52 105.021 52 104.881Z" fill="#00FFC6"/>
<path d="M80.8413 28.3252C80.8413 28.1394 81.0208 28 81.2602 28C81.4995 28 81.679 28.1394 81.679 28.3252C81.679 28.511 81.4995 28.6504 81.2602 28.6504C81.0208 28.6504 80.8413 28.511 80.8413 28.3252Z" fill="#00FFC6"/>
<path d="M168.801 65.7206C168.801 65.5347 168.981 65.3954 169.22 65.3954C169.459 65.3954 169.639 65.5347 169.639 65.7206C169.639 65.9064 169.459 66.0457 169.22 66.0457C168.981 65.9993 168.801 65.8599 168.801 65.7206Z" fill="#00FFC6"/>
<path d="M115.906 132.15C115.906 131.964 116.085 131.824 116.325 131.824C116.564 131.824 116.743 131.964 116.743 132.15C116.743 132.335 116.564 132.475 116.325 132.475C116.085 132.475 115.906 132.335 115.906 132.15Z" fill="#00FFC6"/>
<path d="M69.1733 65.5812C69.1733 65.3953 69.3528 65.256 69.5922 65.256C69.8315 65.256 70.0111 65.3953 70.0111 65.5812C70.0111 65.767 69.8315 65.9063 69.5922 65.9063C69.3528 65.9063 69.1733 65.767 69.1733 65.5812Z" fill="#00FFC6"/>
<ellipse cx="148.337" cy="75.2436" rx="0.418857" ry="0.325177" fill="#00FFC6"/>
<ellipse cx="83.5341" cy="109.294" rx="0.418857" ry="0.325177" fill="#00FFC6"/>
<path d="M143.67 109.341C143.67 109.155 143.849 109.016 144.089 109.016C144.328 109.016 144.508 109.155 144.508 109.341C144.508 109.527 144.328 109.666 144.089 109.666C143.849 109.666 143.67 109.527 143.67 109.341Z" fill="#00FFC6"/>
<path d="M72.2246 134.379C72.2246 134.194 72.4041 134.054 72.6435 134.054C72.8828 134.054 73.0623 134.194 73.0623 134.379C73.0623 134.565 72.8828 134.705 72.6435 134.705C72.4041 134.705 72.2246 134.565 72.2246 134.379Z" fill="#00FFC6"/>
<ellipse cx="140.379" cy="85.928" rx="0.418857" ry="0.325177" fill="#00FFC6"/>
<ellipse cx="118.482" cy="91.2606" rx="0.418857" ry="0.325177" fill="#E500F7"/>
<ellipse cx="121.893" cy="90.1922" rx="0.418857" ry="0.325177" fill="#E500F7"/>
<path d="M94.9663 98.4145C94.9663 98.2287 95.1458 98.0894 95.3852 98.0894C95.6245 98.0894 95.804 98.2287 95.804 98.4145C95.804 98.6003 95.6245 98.7397 95.3852 98.7397C95.1458 98.7397 94.9663 98.6003 94.9663 98.4145Z" fill="#E500F7"/>
<path d="M71.6899 93.0259C71.6899 92.84 71.8695 92.7007 72.1088 92.7007C72.3481 92.7007 72.5277 92.84 72.5277 93.0259C72.5277 93.2117 72.3481 93.351 72.1088 93.351C71.8695 93.351 71.6899 93.2117 71.6899 93.0259Z" fill="#E500F7"/>
<ellipse cx="95.6845" cy="81.2265" rx="0.418857" ry="0.325177" fill="#E500F7"/>
<ellipse cx="98.5565" cy="72.3539" rx="0.418857" ry="0.325177" fill="#E500F7"/>
<ellipse cx="56.7309" cy="77.9283" rx="0.418857" ry="0.325177" fill="#E500F7"/>
<ellipse cx="54.3969" cy="71.8429" rx="0.418857" ry="0.325177" fill="#E500F7"/>
<path d="M84.9736 82.1556C84.9736 81.9698 85.1531 81.8304 85.3925 81.8304C85.6318 81.8304 85.8113 81.9698 85.8113 82.1556C85.8113 82.3414 85.6318 82.4808 85.3925 82.4808C85.1531 82.4808 84.9736 82.3414 84.9736 82.1556Z" fill="#E500F7"/>
<path d="M24 115.881C24 115.695 24.1795 115.556 24.4189 115.556C24.6582 115.556 24.8377 115.695 24.8377 115.881C24.8377 116.067 24.6582 116.206 24.4189 116.206C24.1795 116.206 24 116.021 24 115.881Z" fill="#E500F7"/>
<path d="M52.8413 39.3252C52.8413 39.1394 53.0208 39 53.2602 39C53.4995 39 53.679 39.1394 53.679 39.3252C53.679 39.511 53.4995 39.6504 53.2602 39.6504C53.0208 39.6504 52.8413 39.511 52.8413 39.3252Z" fill="#E500F7"/>
<path d="M140.801 76.7206C140.801 76.5347 140.981 76.3954 141.22 76.3954C141.459 76.3954 141.639 76.5347 141.639 76.7206C141.639 76.9064 141.459 77.0457 141.22 77.0457C140.981 76.9993 140.801 76.8599 140.801 76.7206Z" fill="#E500F7"/>
<path d="M87.9058 143.15C87.9058 142.964 88.0853 142.824 88.3246 142.824C88.564 142.824 88.7435 142.964 88.7435 143.15C88.7435 143.335 88.564 143.475 88.3246 143.475C88.0853 143.475 87.9058 143.335 87.9058 143.15Z" fill="#E500F7"/>
<path d="M41.1733 76.5812C41.1733 76.3953 41.3528 76.256 41.5922 76.256C41.8315 76.256 42.0111 76.3953 42.0111 76.5812C42.0111 76.767 41.8315 76.9063 41.5922 76.9063C41.3528 76.9063 41.1733 76.767 41.1733 76.5812Z" fill="#E500F7"/>
<ellipse cx="120.337" cy="86.2436" rx="0.418857" ry="0.325177" fill="#E500F7"/>
<ellipse cx="55.5341" cy="120.294" rx="0.418857" ry="0.325177" fill="#E500F7"/>
<path d="M115.67 120.341C115.67 120.155 115.849 120.016 116.089 120.016C116.328 120.016 116.508 120.155 116.508 120.341C116.508 120.527 116.328 120.666 116.089 120.666C115.849 120.666 115.67 120.527 115.67 120.341Z" fill="#E500F7"/>
<path d="M44.2246 145.379C44.2246 145.194 44.4041 145.054 44.6435 145.054C44.8828 145.054 45.0623 145.194 45.0623 145.379C45.0623 145.565 44.8828 145.705 44.6435 145.705C44.4041 145.705 44.2246 145.565 44.2246 145.379Z" fill="#E500F7"/>
<ellipse cx="112.379" cy="96.928" rx="0.418857" ry="0.325177" fill="#E500F7"/>
</g>
<g opacity="0.574567">
<ellipse cx="182.482" cy="113.261" rx="0.418857" ry="0.325177" fill="#0062FF"/>
<ellipse cx="185.893" cy="112.192" rx="0.418857" ry="0.325177" fill="#0062FF"/>
<path d="M158.966 120.415C158.966 120.229 159.146 120.089 159.385 120.089C159.625 120.089 159.804 120.229 159.804 120.415C159.804 120.6 159.625 120.74 159.385 120.74C159.146 120.74 158.966 120.6 158.966 120.415Z" fill="#0062FF"/>
<path d="M135.69 115.026C135.69 114.84 135.869 114.701 136.109 114.701C136.348 114.701 136.528 114.84 136.528 115.026C136.528 115.212 136.348 115.351 136.109 115.351C135.869 115.351 135.69 115.212 135.69 115.026Z" fill="#0062FF"/>
<ellipse cx="159.684" cy="103.227" rx="0.418857" ry="0.325177" fill="#0062FF"/>
<ellipse cx="162.557" cy="94.3539" rx="0.418857" ry="0.325177" fill="#0062FF"/>
<ellipse cx="120.731" cy="99.9283" rx="0.418857" ry="0.325177" fill="#0062FF"/>
<ellipse cx="118.397" cy="93.8429" rx="0.418857" ry="0.325177" fill="#0062FF"/>
<path d="M148.974 104.156C148.974 103.97 149.153 103.83 149.392 103.83C149.632 103.83 149.811 103.97 149.811 104.156C149.811 104.341 149.632 104.481 149.392 104.481C149.153 104.481 148.974 104.341 148.974 104.156Z" fill="#0062FF"/>
<path d="M88 137.881C88 137.695 88.1795 137.556 88.4189 137.556C88.6582 137.556 88.8377 137.695 88.8377 137.881C88.8377 138.067 88.6582 138.206 88.4189 138.206C88.1795 138.206 88 138.021 88 137.881Z" fill="#0062FF"/>
<path d="M116.841 61.3252C116.841 61.1394 117.021 61 117.26 61C117.5 61 117.679 61.1394 117.679 61.3252C117.679 61.511 117.5 61.6504 117.26 61.6504C117.021 61.6504 116.841 61.511 116.841 61.3252Z" fill="#0062FF"/>
<path d="M204.801 98.7206C204.801 98.5347 204.981 98.3954 205.22 98.3954C205.459 98.3954 205.639 98.5347 205.639 98.7206C205.639 98.9064 205.459 99.0457 205.22 99.0457C204.981 98.9993 204.801 98.8599 204.801 98.7206Z" fill="#0062FF"/>
<path d="M151.906 165.15C151.906 164.964 152.085 164.824 152.325 164.824C152.564 164.824 152.743 164.964 152.743 165.15C152.743 165.335 152.564 165.475 152.325 165.475C152.085 165.475 151.906 165.335 151.906 165.15Z" fill="#0062FF"/>
<path d="M105.173 98.5812C105.173 98.3953 105.353 98.256 105.592 98.256C105.832 98.256 106.011 98.3953 106.011 98.5812C106.011 98.767 105.832 98.9063 105.592 98.9063C105.353 98.9063 105.173 98.767 105.173 98.5812Z" fill="#0062FF"/>
<ellipse cx="184.337" cy="108.244" rx="0.418857" ry="0.325177" fill="#0062FF"/>
<ellipse cx="119.534" cy="142.294" rx="0.418857" ry="0.325177" fill="#0062FF"/>
<path d="M179.67 142.341C179.67 142.155 179.849 142.016 180.089 142.016C180.328 142.016 180.508 142.155 180.508 142.341C180.508 142.527 180.328 142.666 180.089 142.666C179.849 142.666 179.67 142.527 179.67 142.341Z" fill="#0062FF"/>
<path d="M108.225 167.379C108.225 167.194 108.404 167.054 108.643 167.054C108.883 167.054 109.062 167.194 109.062 167.379C109.062 167.565 108.883 167.705 108.643 167.705C108.404 167.705 108.225 167.565 108.225 167.379Z" fill="#0062FF"/>
<ellipse cx="176.379" cy="118.928" rx="0.418857" ry="0.325177" fill="#0062FF"/>
<ellipse cx="173.482" cy="102.261" rx="0.418857" ry="0.325177" fill="#FF1E1E"/>
<ellipse cx="176.893" cy="101.192" rx="0.418857" ry="0.325177" fill="#FF1E1E"/>
<path d="M149.966 109.415C149.966 109.229 150.146 109.089 150.385 109.089C150.625 109.089 150.804 109.229 150.804 109.415C150.804 109.6 150.625 109.74 150.385 109.74C150.146 109.74 149.966 109.6 149.966 109.415Z" fill="#FF1E1E"/>
<path d="M126.69 104.026C126.69 103.84 126.869 103.701 127.109 103.701C127.348 103.701 127.528 103.84 127.528 104.026C127.528 104.212 127.348 104.351 127.109 104.351C126.869 104.351 126.69 104.212 126.69 104.026Z" fill="#FF1E1E"/>
<ellipse cx="150.684" cy="92.2265" rx="0.418857" ry="0.325177" fill="#FF1E1E"/>
<ellipse cx="153.557" cy="83.3539" rx="0.418857" ry="0.325177" fill="#FF1E1E"/>
<ellipse cx="111.731" cy="88.9283" rx="0.418857" ry="0.325177" fill="#FF1E1E"/>
<ellipse cx="109.397" cy="82.8429" rx="0.418857" ry="0.325177" fill="#FF1E1E"/>
<path d="M139.974 93.1556C139.974 92.9698 140.153 92.8304 140.392 92.8304C140.632 92.8304 140.811 92.9698 140.811 93.1556C140.811 93.3414 140.632 93.4808 140.392 93.4808C140.153 93.4808 139.974 93.3414 139.974 93.1556Z" fill="#FF1E1E"/>
<path d="M79 126.881C79 126.695 79.1795 126.556 79.4189 126.556C79.6582 126.556 79.8377 126.695 79.8377 126.881C79.8377 127.067 79.6582 127.206 79.4189 127.206C79.1795 127.206 79 127.021 79 126.881Z" fill="#FF1E1E"/>
<path d="M107.841 50.3252C107.841 50.1394 108.021 50 108.26 50C108.5 50 108.679 50.1394 108.679 50.3252C108.679 50.511 108.5 50.6504 108.26 50.6504C108.021 50.6504 107.841 50.511 107.841 50.3252Z" fill="#FF1E1E"/>
<path d="M195.801 87.7206C195.801 87.5347 195.981 87.3954 196.22 87.3954C196.459 87.3954 196.639 87.5347 196.639 87.7206C196.639 87.9064 196.459 88.0457 196.22 88.0457C195.981 87.9993 195.801 87.8599 195.801 87.7206Z" fill="#FF1E1E"/>
<path d="M142.906 154.15C142.906 153.964 143.085 153.824 143.325 153.824C143.564 153.824 143.743 153.964 143.743 154.15C143.743 154.335 143.564 154.475 143.325 154.475C143.085 154.475 142.906 154.335 142.906 154.15Z" fill="#FF1E1E"/>
<path d="M96.1733 87.5812C96.1733 87.3953 96.3528 87.256 96.5922 87.256C96.8315 87.256 97.0111 87.3953 97.0111 87.5812C97.0111 87.767 96.8315 87.9063 96.5922 87.9063C96.3528 87.9063 96.1733 87.767 96.1733 87.5812Z" fill="#FF1E1E"/>
<ellipse cx="175.337" cy="97.2436" rx="0.418857" ry="0.325177" fill="#FF1E1E"/>
<ellipse cx="110.534" cy="131.294" rx="0.418857" ry="0.325177" fill="#FF1E1E"/>
<path d="M170.67 131.341C170.67 131.155 170.849 131.016 171.089 131.016C171.328 131.016 171.508 131.155 171.508 131.341C171.508 131.527 171.328 131.666 171.089 131.666C170.849 131.666 170.67 131.527 170.67 131.341Z" fill="#FF1E1E"/>
<path d="M99.2246 156.379C99.2246 156.194 99.4041 156.054 99.6435 156.054C99.8828 156.054 100.062 156.194 100.062 156.379C100.062 156.565 99.8828 156.705 99.6435 156.705C99.4041 156.705 99.2246 156.565 99.2246 156.379Z" fill="#FF1E1E"/>
<ellipse cx="167.379" cy="107.928" rx="0.418857" ry="0.325177" fill="#FF1E1E"/>
<ellipse cx="191.482" cy="115.261" rx="0.418857" ry="0.325177" fill="#00FFC6"/>
<ellipse cx="194.893" cy="114.192" rx="0.418857" ry="0.325177" fill="#00FFC6"/>
<path d="M167.966 122.415C167.966 122.229 168.146 122.089 168.385 122.089C168.625 122.089 168.804 122.229 168.804 122.415C168.804 122.6 168.625 122.74 168.385 122.74C168.146 122.74 167.966 122.6 167.966 122.415Z" fill="#00FFC6"/>
<path d="M144.69 117.026C144.69 116.84 144.869 116.701 145.109 116.701C145.348 116.701 145.528 116.84 145.528 117.026C145.528 117.212 145.348 117.351 145.109 117.351C144.869 117.351 144.69 117.212 144.69 117.026Z" fill="#00FFC6"/>
<ellipse cx="168.684" cy="105.227" rx="0.418857" ry="0.325177" fill="#00FFC6"/>
<ellipse cx="171.557" cy="96.3539" rx="0.418857" ry="0.325177" fill="#00FFC6"/>
<ellipse cx="129.731" cy="101.928" rx="0.418857" ry="0.325177" fill="#00FFC6"/>
<ellipse cx="127.397" cy="95.8429" rx="0.418857" ry="0.325177" fill="#00FFC6"/>
<path d="M157.974 106.156C157.974 105.97 158.153 105.83 158.392 105.83C158.632 105.83 158.811 105.97 158.811 106.156C158.811 106.341 158.632 106.481 158.392 106.481C158.153 106.481 157.974 106.341 157.974 106.156Z" fill="#00FFC6"/>
<path d="M97 139.881C97 139.695 97.1795 139.556 97.4189 139.556C97.6582 139.556 97.8377 139.695 97.8377 139.881C97.8377 140.067 97.6582 140.206 97.4189 140.206C97.1795 140.206 97 140.021 97 139.881Z" fill="#00FFC6"/>
<path d="M125.841 63.3252C125.841 63.1394 126.021 63 126.26 63C126.5 63 126.679 63.1394 126.679 63.3252C126.679 63.511 126.5 63.6504 126.26 63.6504C126.021 63.6504 125.841 63.511 125.841 63.3252Z" fill="#00FFC6"/>
<path d="M213.801 100.721C213.801 100.535 213.981 100.395 214.22 100.395C214.459 100.395 214.639 100.535 214.639 100.721C214.639 100.906 214.459 101.046 214.22 101.046C213.981 100.999 213.801 100.86 213.801 100.721Z" fill="#00FFC6"/>
<path d="M160.906 167.15C160.906 166.964 161.085 166.824 161.325 166.824C161.564 166.824 161.743 166.964 161.743 167.15C161.743 167.335 161.564 167.475 161.325 167.475C161.085 167.475 160.906 167.335 160.906 167.15Z" fill="#00FFC6"/>
<path d="M114.173 100.581C114.173 100.395 114.353 100.256 114.592 100.256C114.832 100.256 115.011 100.395 115.011 100.581C115.011 100.767 114.832 100.906 114.592 100.906C114.353 100.906 114.173 100.767 114.173 100.581Z" fill="#00FFC6"/>
<ellipse cx="193.337" cy="110.244" rx="0.418857" ry="0.325177" fill="#00FFC6"/>
<ellipse cx="128.534" cy="144.294" rx="0.418857" ry="0.325177" fill="#00FFC6"/>
<path d="M188.67 144.341C188.67 144.155 188.849 144.016 189.089 144.016C189.328 144.016 189.508 144.155 189.508 144.341C189.508 144.527 189.328 144.666 189.089 144.666C188.849 144.666 188.67 144.527 188.67 144.341Z" fill="#00FFC6"/>
<path d="M117.225 169.379C117.225 169.194 117.404 169.054 117.643 169.054C117.883 169.054 118.062 169.194 118.062 169.379C118.062 169.565 117.883 169.705 117.643 169.705C117.404 169.705 117.225 169.565 117.225 169.379Z" fill="#00FFC6"/>
<ellipse cx="185.379" cy="120.928" rx="0.418857" ry="0.325177" fill="#00FFC6"/>
<ellipse cx="163.482" cy="126.261" rx="0.418857" ry="0.325177" fill="#E500F7"/>
<ellipse cx="166.893" cy="125.192" rx="0.418857" ry="0.325177" fill="#E500F7"/>
<path d="M139.966 133.415C139.966 133.229 140.146 133.089 140.385 133.089C140.625 133.089 140.804 133.229 140.804 133.415C140.804 133.6 140.625 133.74 140.385 133.74C140.146 133.74 139.966 133.6 139.966 133.415Z" fill="#E500F7"/>
<path d="M116.69 128.026C116.69 127.84 116.869 127.701 117.109 127.701C117.348 127.701 117.528 127.84 117.528 128.026C117.528 128.212 117.348 128.351 117.109 128.351C116.869 128.351 116.69 128.212 116.69 128.026Z" fill="#E500F7"/>
<ellipse cx="140.684" cy="116.227" rx="0.418857" ry="0.325177" fill="#E500F7"/>
<ellipse cx="143.557" cy="107.354" rx="0.418857" ry="0.325177" fill="#E500F7"/>
<ellipse cx="101.731" cy="112.928" rx="0.418857" ry="0.325177" fill="#E500F7"/>
<ellipse cx="99.3969" cy="106.843" rx="0.418857" ry="0.325177" fill="#E500F7"/>
<path d="M129.974 117.156C129.974 116.97 130.153 116.83 130.392 116.83C130.632 116.83 130.811 116.97 130.811 117.156C130.811 117.341 130.632 117.481 130.392 117.481C130.153 117.481 129.974 117.341 129.974 117.156Z" fill="#E500F7"/>
<path d="M69 150.881C69 150.695 69.1795 150.556 69.4189 150.556C69.6582 150.556 69.8377 150.695 69.8377 150.881C69.8377 151.067 69.6582 151.206 69.4189 151.206C69.1795 151.206 69 151.021 69 150.881Z" fill="#E500F7"/>
<path d="M97.8413 74.3252C97.8413 74.1394 98.0208 74 98.2602 74C98.4995 74 98.679 74.1394 98.679 74.3252C98.679 74.511 98.4995 74.6504 98.2602 74.6504C98.0208 74.6504 97.8413 74.511 97.8413 74.3252Z" fill="#E500F7"/>
<path d="M185.801 111.721C185.801 111.535 185.981 111.395 186.22 111.395C186.459 111.395 186.639 111.535 186.639 111.721C186.639 111.906 186.459 112.046 186.22 112.046C185.981 111.999 185.801 111.86 185.801 111.721Z" fill="#E500F7"/>
<path d="M132.906 178.15C132.906 177.964 133.085 177.824 133.325 177.824C133.564 177.824 133.743 177.964 133.743 178.15C133.743 178.335 133.564 178.475 133.325 178.475C133.085 178.475 132.906 178.335 132.906 178.15Z" fill="#E500F7"/>
<path d="M86.1733 111.581C86.1733 111.395 86.3528 111.256 86.5922 111.256C86.8315 111.256 87.0111 111.395 87.0111 111.581C87.0111 111.767 86.8315 111.906 86.5922 111.906C86.3528 111.906 86.1733 111.767 86.1733 111.581Z" fill="#E500F7"/>
<ellipse cx="165.337" cy="121.244" rx="0.418857" ry="0.325177" fill="#E500F7"/>
<ellipse cx="100.534" cy="155.294" rx="0.418857" ry="0.325177" fill="#E500F7"/>
<path d="M160.67 155.341C160.67 155.155 160.849 155.016 161.089 155.016C161.328 155.016 161.508 155.155 161.508 155.341C161.508 155.527 161.328 155.666 161.089 155.666C160.849 155.666 160.67 155.527 160.67 155.341Z" fill="#E500F7"/>
<path d="M89.2246 180.379C89.2246 180.194 89.4041 180.054 89.6435 180.054C89.8828 180.054 90.0623 180.194 90.0623 180.379C90.0623 180.565 89.8828 180.705 89.6435 180.705C89.4041 180.705 89.2246 180.565 89.2246 180.379Z" fill="#E500F7"/>
<ellipse cx="157.379" cy="131.928" rx="0.418857" ry="0.325177" fill="#E500F7"/>
</g>
<g opacity="0.615723">
<ellipse cx="241.482" cy="132.261" rx="0.418857" ry="0.325177" fill="#0062FF"/>
<ellipse cx="244.893" cy="131.192" rx="0.418857" ry="0.325177" fill="#0062FF"/>
<path d="M217.966 139.415C217.966 139.229 218.146 139.089 218.385 139.089C218.625 139.089 218.804 139.229 218.804 139.415C218.804 139.6 218.625 139.74 218.385 139.74C218.146 139.74 217.966 139.6 217.966 139.415Z" fill="#0062FF"/>
<path d="M194.69 134.026C194.69 133.84 194.869 133.701 195.109 133.701C195.348 133.701 195.528 133.84 195.528 134.026C195.528 134.212 195.348 134.351 195.109 134.351C194.869 134.351 194.69 134.212 194.69 134.026Z" fill="#0062FF"/>
<ellipse cx="218.684" cy="122.227" rx="0.418857" ry="0.325177" fill="#0062FF"/>
<ellipse cx="221.557" cy="113.354" rx="0.418857" ry="0.325177" fill="#0062FF"/>
<ellipse cx="179.731" cy="118.928" rx="0.418857" ry="0.325177" fill="#0062FF"/>
<ellipse cx="177.397" cy="112.843" rx="0.418857" ry="0.325177" fill="#0062FF"/>
<path d="M207.974 123.156C207.974 122.97 208.153 122.83 208.392 122.83C208.632 122.83 208.811 122.97 208.811 123.156C208.811 123.341 208.632 123.481 208.392 123.481C208.153 123.481 207.974 123.341 207.974 123.156Z" fill="#0062FF"/>
<path d="M147 156.881C147 156.695 147.18 156.556 147.419 156.556C147.658 156.556 147.838 156.695 147.838 156.881C147.838 157.067 147.658 157.206 147.419 157.206C147.18 157.206 147 157.021 147 156.881Z" fill="#0062FF"/>
<path d="M175.841 80.3252C175.841 80.1394 176.021 80 176.26 80C176.5 80 176.679 80.1394 176.679 80.3252C176.679 80.511 176.5 80.6504 176.26 80.6504C176.021 80.6504 175.841 80.511 175.841 80.3252Z" fill="#0062FF"/>
<path d="M263.801 117.721C263.801 117.535 263.981 117.395 264.22 117.395C264.459 117.395 264.639 117.535 264.639 117.721C264.639 117.906 264.459 118.046 264.22 118.046C263.981 117.999 263.801 117.86 263.801 117.721Z" fill="#0062FF"/>
<path d="M210.906 184.15C210.906 183.964 211.085 183.824 211.325 183.824C211.564 183.824 211.743 183.964 211.743 184.15C211.743 184.335 211.564 184.475 211.325 184.475C211.085 184.475 210.906 184.335 210.906 184.15Z" fill="#0062FF"/>
<path d="M164.173 117.581C164.173 117.395 164.353 117.256 164.592 117.256C164.832 117.256 165.011 117.395 165.011 117.581C165.011 117.767 164.832 117.906 164.592 117.906C164.353 117.906 164.173 117.767 164.173 117.581Z" fill="#0062FF"/>
<ellipse cx="243.337" cy="127.244" rx="0.418857" ry="0.325177" fill="#0062FF"/>
<ellipse cx="178.534" cy="161.294" rx="0.418857" ry="0.325177" fill="#0062FF"/>
<path d="M238.67 161.341C238.67 161.155 238.849 161.016 239.089 161.016C239.328 161.016 239.508 161.155 239.508 161.341C239.508 161.527 239.328 161.666 239.089 161.666C238.849 161.666 238.67 161.527 238.67 161.341Z" fill="#0062FF"/>
<path d="M167.225 186.379C167.225 186.194 167.404 186.054 167.643 186.054C167.883 186.054 168.062 186.194 168.062 186.379C168.062 186.565 167.883 186.705 167.643 186.705C167.404 186.705 167.225 186.565 167.225 186.379Z" fill="#0062FF"/>
<ellipse cx="235.379" cy="137.928" rx="0.418857" ry="0.325177" fill="#0062FF"/>
<ellipse cx="232.482" cy="121.261" rx="0.418857" ry="0.325177" fill="#FF1E1E"/>
<ellipse cx="235.893" cy="120.192" rx="0.418857" ry="0.325177" fill="#FF1E1E"/>
<path d="M208.966 128.415C208.966 128.229 209.146 128.089 209.385 128.089C209.625 128.089 209.804 128.229 209.804 128.415C209.804 128.6 209.625 128.74 209.385 128.74C209.146 128.74 208.966 128.6 208.966 128.415Z" fill="#FF1E1E"/>
<path d="M185.69 123.026C185.69 122.84 185.869 122.701 186.109 122.701C186.348 122.701 186.528 122.84 186.528 123.026C186.528 123.212 186.348 123.351 186.109 123.351C185.869 123.351 185.69 123.212 185.69 123.026Z" fill="#FF1E1E"/>
<ellipse cx="209.684" cy="111.227" rx="0.418857" ry="0.325177" fill="#FF1E1E"/>
<ellipse cx="212.557" cy="102.354" rx="0.418857" ry="0.325177" fill="#FF1E1E"/>
<ellipse cx="170.731" cy="107.928" rx="0.418857" ry="0.325177" fill="#FF1E1E"/>
<ellipse cx="168.397" cy="101.843" rx="0.418857" ry="0.325177" fill="#FF1E1E"/>
<path d="M198.974 112.156C198.974 111.97 199.153 111.83 199.392 111.83C199.632 111.83 199.811 111.97 199.811 112.156C199.811 112.341 199.632 112.481 199.392 112.481C199.153 112.481 198.974 112.341 198.974 112.156Z" fill="#FF1E1E"/>
<path d="M138 145.881C138 145.695 138.18 145.556 138.419 145.556C138.658 145.556 138.838 145.695 138.838 145.881C138.838 146.067 138.658 146.206 138.419 146.206C138.18 146.206 138 146.021 138 145.881Z" fill="#FF1E1E"/>
<path d="M166.841 69.3252C166.841 69.1394 167.021 69 167.26 69C167.5 69 167.679 69.1394 167.679 69.3252C167.679 69.511 167.5 69.6504 167.26 69.6504C167.021 69.6504 166.841 69.511 166.841 69.3252Z" fill="#FF1E1E"/>
<path d="M254.801 106.721C254.801 106.535 254.981 106.395 255.22 106.395C255.459 106.395 255.639 106.535 255.639 106.721C255.639 106.906 255.459 107.046 255.22 107.046C254.981 106.999 254.801 106.86 254.801 106.721Z" fill="#FF1E1E"/>
<path d="M201.906 173.15C201.906 172.964 202.085 172.824 202.325 172.824C202.564 172.824 202.743 172.964 202.743 173.15C202.743 173.335 202.564 173.475 202.325 173.475C202.085 173.475 201.906 173.335 201.906 173.15Z" fill="#FF1E1E"/>
<path d="M155.173 106.581C155.173 106.395 155.353 106.256 155.592 106.256C155.832 106.256 156.011 106.395 156.011 106.581C156.011 106.767 155.832 106.906 155.592 106.906C155.353 106.906 155.173 106.767 155.173 106.581Z" fill="#FF1E1E"/>
<ellipse cx="234.337" cy="116.244" rx="0.418857" ry="0.325177" fill="#FF1E1E"/>
<ellipse cx="169.534" cy="150.294" rx="0.418857" ry="0.325177" fill="#FF1E1E"/>
<path d="M229.67 150.341C229.67 150.155 229.849 150.016 230.089 150.016C230.328 150.016 230.508 150.155 230.508 150.341C230.508 150.527 230.328 150.666 230.089 150.666C229.849 150.666 229.67 150.527 229.67 150.341Z" fill="#FF1E1E"/>
<path d="M158.225 175.379C158.225 175.194 158.404 175.054 158.643 175.054C158.883 175.054 159.062 175.194 159.062 175.379C159.062 175.565 158.883 175.705 158.643 175.705C158.404 175.705 158.225 175.565 158.225 175.379Z" fill="#FF1E1E"/>
<ellipse cx="226.379" cy="126.928" rx="0.418857" ry="0.325177" fill="#FF1E1E"/>
<ellipse cx="250.482" cy="134.261" rx="0.418857" ry="0.325177" fill="#00FFC6"/>
<ellipse cx="253.893" cy="133.192" rx="0.418857" ry="0.325177" fill="#00FFC6"/>
<path d="M226.966 141.415C226.966 141.229 227.146 141.089 227.385 141.089C227.625 141.089 227.804 141.229 227.804 141.415C227.804 141.6 227.625 141.74 227.385 141.74C227.146 141.74 226.966 141.6 226.966 141.415Z" fill="#00FFC6"/>
<path d="M203.69 136.026C203.69 135.84 203.869 135.701 204.109 135.701C204.348 135.701 204.528 135.84 204.528 136.026C204.528 136.212 204.348 136.351 204.109 136.351C203.869 136.351 203.69 136.212 203.69 136.026Z" fill="#00FFC6"/>
<ellipse cx="227.684" cy="124.227" rx="0.418857" ry="0.325177" fill="#00FFC6"/>
<ellipse cx="230.557" cy="115.354" rx="0.418857" ry="0.325177" fill="#00FFC6"/>
<ellipse cx="188.731" cy="120.928" rx="0.418857" ry="0.325177" fill="#00FFC6"/>
<ellipse cx="186.397" cy="114.843" rx="0.418857" ry="0.325177" fill="#00FFC6"/>
<path d="M216.974 125.156C216.974 124.97 217.153 124.83 217.392 124.83C217.632 124.83 217.811 124.97 217.811 125.156C217.811 125.341 217.632 125.481 217.392 125.481C217.153 125.481 216.974 125.341 216.974 125.156Z" fill="#00FFC6"/>
<path d="M156 158.881C156 158.695 156.18 158.556 156.419 158.556C156.658 158.556 156.838 158.695 156.838 158.881C156.838 159.067 156.658 159.206 156.419 159.206C156.18 159.206 156 159.021 156 158.881Z" fill="#00FFC6"/>
<path d="M184.841 82.3252C184.841 82.1394 185.021 82 185.26 82C185.5 82 185.679 82.1394 185.679 82.3252C185.679 82.511 185.5 82.6504 185.26 82.6504C185.021 82.6504 184.841 82.511 184.841 82.3252Z" fill="#00FFC6"/>
<path d="M272.801 119.721C272.801 119.535 272.981 119.395 273.22 119.395C273.459 119.395 273.639 119.535 273.639 119.721C273.639 119.906 273.459 120.046 273.22 120.046C272.981 119.999 272.801 119.86 272.801 119.721Z" fill="#00FFC6"/>
<path d="M219.906 186.15C219.906 185.964 220.085 185.824 220.325 185.824C220.564 185.824 220.743 185.964 220.743 186.15C220.743 186.335 220.564 186.475 220.325 186.475C220.085 186.475 219.906 186.335 219.906 186.15Z" fill="#00FFC6"/>
<path d="M173.173 119.581C173.173 119.395 173.353 119.256 173.592 119.256C173.832 119.256 174.011 119.395 174.011 119.581C174.011 119.767 173.832 119.906 173.592 119.906C173.353 119.906 173.173 119.767 173.173 119.581Z" fill="#00FFC6"/>
<ellipse cx="252.337" cy="129.244" rx="0.418857" ry="0.325177" fill="white"/>
<ellipse cx="187.534" cy="163.294" rx="0.418857" ry="0.325177" fill="#00FFC6"/>
<path d="M247.67 163.341C247.67 163.155 247.849 163.016 248.089 163.016C248.328 163.016 248.508 163.155 248.508 163.341C248.508 163.527 248.328 163.666 248.089 163.666C247.849 163.666 247.67 163.527 247.67 163.341Z" fill="white"/>
<path d="M176.225 188.379C176.225 188.194 176.404 188.054 176.643 188.054C176.883 188.054 177.062 188.194 177.062 188.379C177.062 188.565 176.883 188.705 176.643 188.705C176.404 188.705 176.225 188.565 176.225 188.379Z" fill="white"/>
<ellipse cx="244.379" cy="139.928" rx="0.418857" ry="0.325177" fill="white"/>
<ellipse cx="222.482" cy="145.261" rx="0.418857" ry="0.325177" fill="white"/>
<ellipse cx="225.893" cy="144.192" rx="0.418857" ry="0.325177" fill="white"/>
<path d="M198.966 152.415C198.966 152.229 199.146 152.089 199.385 152.089C199.625 152.089 199.804 152.229 199.804 152.415C199.804 152.6 199.625 152.74 199.385 152.74C199.146 152.74 198.966 152.6 198.966 152.415Z" fill="white"/>
<path d="M175.69 147.026C175.69 146.84 175.869 146.701 176.109 146.701C176.348 146.701 176.528 146.84 176.528 147.026C176.528 147.212 176.348 147.351 176.109 147.351C175.869 147.351 175.69 147.212 175.69 147.026Z" fill="white"/>
<ellipse cx="199.684" cy="135.227" rx="0.418857" ry="0.325177" fill="white"/>
<ellipse cx="202.557" cy="126.354" rx="0.418857" ry="0.325177" fill="white"/>
<ellipse cx="160.731" cy="131.928" rx="0.418857" ry="0.325177" fill="white"/>
<ellipse cx="158.397" cy="125.843" rx="0.418857" ry="0.325177" fill="white"/>
<path d="M188.974 136.156C188.974 135.97 189.153 135.83 189.392 135.83C189.632 135.83 189.811 135.97 189.811 136.156C189.811 136.341 189.632 136.481 189.392 136.481C189.153 136.481 188.974 136.341 188.974 136.156Z" fill="white"/>
<path d="M128 169.881C128 169.695 128.18 169.556 128.419 169.556C128.658 169.556 128.838 169.695 128.838 169.881C128.838 170.067 128.658 170.206 128.419 170.206C128.18 170.206 128 170.021 128 169.881Z" fill="white"/>
<path d="M156.841 93.3252C156.841 93.1394 157.021 93 157.26 93C157.5 93 157.679 93.1394 157.679 93.3252C157.679 93.511 157.5 93.6504 157.26 93.6504C157.021 93.6504 156.841 93.511 156.841 93.3252Z" fill="white"/>
<path d="M244.801 130.721C244.801 130.535 244.981 130.395 245.22 130.395C245.459 130.395 245.639 130.535 245.639 130.721C245.639 130.906 245.459 131.046 245.22 131.046C244.981 130.999 244.801 130.86 244.801 130.721Z" fill="white"/>
<path d="M191.906 197.15C191.906 196.964 192.085 196.824 192.325 196.824C192.564 196.824 192.743 196.964 192.743 197.15C192.743 197.335 192.564 197.475 192.325 197.475C192.085 197.475 191.906 197.335 191.906 197.15Z" fill="white"/>
<path d="M145.173 130.581C145.173 130.395 145.353 130.256 145.592 130.256C145.832 130.256 146.011 130.395 146.011 130.581C146.011 130.767 145.832 130.906 145.592 130.906C145.353 130.906 145.173 130.767 145.173 130.581Z" fill="white"/>
<ellipse cx="224.337" cy="140.244" rx="0.418857" ry="0.325177" fill="white"/>
<ellipse cx="159.534" cy="174.294" rx="0.418857" ry="0.325177" fill="white"/>
<path d="M219.67 174.341C219.67 174.155 219.849 174.016 220.089 174.016C220.328 174.016 220.508 174.155 220.508 174.341C220.508 174.527 220.328 174.666 220.089 174.666C219.849 174.666 219.67 174.527 219.67 174.341Z" fill="white"/>
<path d="M148.225 199.379C148.225 199.194 148.404 199.054 148.643 199.054C148.883 199.054 149.062 199.194 149.062 199.379C149.062 199.565 148.883 199.705 148.643 199.705C148.404 199.705 148.225 199.565 148.225 199.379Z" fill="white"/>
<ellipse cx="216.379" cy="150.928" rx="0.418857" ry="0.325177" fill="white"/>
</g>
<g opacity="0.822661">
<ellipse cx="113.482" cy="120.261" rx="0.418857" ry="0.325177" fill="#0062FF"/>
<ellipse cx="116.893" cy="119.192" rx="0.418857" ry="0.325177" fill="#0062FF"/>
<path d="M89.9663 127.415C89.9663 127.229 90.1458 127.089 90.3852 127.089C90.6245 127.089 90.804 127.229 90.804 127.415C90.804 127.6 90.6245 127.74 90.3852 127.74C90.1458 127.74 89.9663 127.6 89.9663 127.415Z" fill="#0062FF"/>
<path d="M66.6899 122.026C66.6899 121.84 66.8695 121.701 67.1088 121.701C67.3481 121.701 67.5277 121.84 67.5277 122.026C67.5277 122.212 67.3481 122.351 67.1088 122.351C66.8695 122.351 66.6899 122.212 66.6899 122.026Z" fill="#0062FF"/>
<ellipse cx="90.6845" cy="110.227" rx="0.418857" ry="0.325177" fill="#0062FF"/>
<ellipse cx="93.5565" cy="101.354" rx="0.418857" ry="0.325177" fill="#0062FF"/>
<ellipse cx="51.7309" cy="106.928" rx="0.418857" ry="0.325177" fill="#0062FF"/>
<ellipse cx="49.3969" cy="100.843" rx="0.418857" ry="0.325177" fill="#0062FF"/>
<path d="M79.9736 111.156C79.9736 110.97 80.1531 110.83 80.3925 110.83C80.6318 110.83 80.8113 110.97 80.8113 111.156C80.8113 111.341 80.6318 111.481 80.3925 111.481C80.1531 111.481 79.9736 111.341 79.9736 111.156Z" fill="#0062FF"/>
<path d="M19 144.881C19 144.695 19.1795 144.556 19.4189 144.556C19.6582 144.556 19.8377 144.695 19.8377 144.881C19.8377 145.067 19.6582 145.206 19.4189 145.206C19.1795 145.206 19 145.021 19 144.881Z" fill="#0062FF"/>
<path d="M47.8413 68.3252C47.8413 68.1394 48.0208 68 48.2602 68C48.4995 68 48.679 68.1394 48.679 68.3252C48.679 68.511 48.4995 68.6504 48.2602 68.6504C48.0208 68.6504 47.8413 68.511 47.8413 68.3252Z" fill="#0062FF"/>
<path d="M135.801 105.721C135.801 105.535 135.981 105.395 136.22 105.395C136.459 105.395 136.639 105.535 136.639 105.721C136.639 105.906 136.459 106.046 136.22 106.046C135.981 105.999 135.801 105.86 135.801 105.721Z" fill="#0062FF"/>
<path d="M82.9058 172.15C82.9058 171.964 83.0853 171.824 83.3246 171.824C83.564 171.824 83.7435 171.964 83.7435 172.15C83.7435 172.335 83.564 172.475 83.3246 172.475C83.0853 172.475 82.9058 172.335 82.9058 172.15Z" fill="#0062FF"/>
<path d="M36.1733 105.581C36.1733 105.395 36.3528 105.256 36.5922 105.256C36.8315 105.256 37.0111 105.395 37.0111 105.581C37.0111 105.767 36.8315 105.906 36.5922 105.906C36.3528 105.906 36.1733 105.767 36.1733 105.581Z" fill="#0062FF"/>
<ellipse cx="115.337" cy="115.244" rx="0.418857" ry="0.325177" fill="#0062FF"/>
<ellipse cx="50.5341" cy="149.294" rx="0.418857" ry="0.325177" fill="#0062FF"/>
<path d="M110.67 149.341C110.67 149.155 110.849 149.016 111.089 149.016C111.328 149.016 111.508 149.155 111.508 149.341C111.508 149.527 111.328 149.666 111.089 149.666C110.849 149.666 110.67 149.527 110.67 149.341Z" fill="#0062FF"/>
<path d="M39.2246 174.379C39.2246 174.194 39.4041 174.054 39.6435 174.054C39.8828 174.054 40.0623 174.194 40.0623 174.379C40.0623 174.565 39.8828 174.705 39.6435 174.705C39.4041 174.705 39.2246 174.565 39.2246 174.379Z" fill="#0062FF"/>
<ellipse cx="107.379" cy="125.928" rx="0.418857" ry="0.325177" fill="#0062FF"/>
<ellipse cx="104.482" cy="109.261" rx="0.418857" ry="0.325177" fill="#FF1E1E"/>
<ellipse cx="107.893" cy="108.192" rx="0.418857" ry="0.325177" fill="#FF1E1E"/>
<path d="M80.9663 116.415C80.9663 116.229 81.1458 116.089 81.3852 116.089C81.6245 116.089 81.804 116.229 81.804 116.415C81.804 116.6 81.6245 116.74 81.3852 116.74C81.1458 116.74 80.9663 116.6 80.9663 116.415Z" fill="#FF1E1E"/>
<path d="M57.6899 111.026C57.6899 110.84 57.8695 110.701 58.1088 110.701C58.3481 110.701 58.5277 110.84 58.5277 111.026C58.5277 111.212 58.3481 111.351 58.1088 111.351C57.8695 111.351 57.6899 111.212 57.6899 111.026Z" fill="#FF1E1E"/>
<ellipse cx="81.6845" cy="99.2265" rx="0.418857" ry="0.325177" fill="#FF1E1E"/>
<ellipse cx="84.5565" cy="90.3539" rx="0.418857" ry="0.325177" fill="#FF1E1E"/>
<ellipse cx="42.7309" cy="95.9283" rx="0.418857" ry="0.325177" fill="#FF1E1E"/>
<ellipse cx="40.3969" cy="89.8429" rx="0.418857" ry="0.325177" fill="#FF1E1E"/>
<path d="M70.9736 100.156C70.9736 99.9698 71.1531 99.8304 71.3925 99.8304C71.6318 99.8304 71.8113 99.9698 71.8113 100.156C71.8113 100.341 71.6318 100.481 71.3925 100.481C71.1531 100.481 70.9736 100.341 70.9736 100.156Z" fill="#FF1E1E"/>
<path d="M10 133.881C10 133.695 10.1795 133.556 10.4189 133.556C10.6582 133.556 10.8377 133.695 10.8377 133.881C10.8377 134.067 10.6582 134.206 10.4189 134.206C10.1795 134.206 10 134.021 10 133.881Z" fill="#FF1E1E"/>
<path d="M38.8413 57.3252C38.8413 57.1394 39.0208 57 39.2602 57C39.4995 57 39.679 57.1394 39.679 57.3252C39.679 57.511 39.4995 57.6504 39.2602 57.6504C39.0208 57.6504 38.8413 57.511 38.8413 57.3252Z" fill="#FF1E1E"/>
<path d="M126.801 94.7206C126.801 94.5347 126.981 94.3954 127.22 94.3954C127.459 94.3954 127.639 94.5347 127.639 94.7206C127.639 94.9064 127.459 95.0457 127.22 95.0457C126.981 94.9993 126.801 94.8599 126.801 94.7206Z" fill="#FF1E1E"/>
<path d="M73.9058 161.15C73.9058 160.964 74.0853 160.824 74.3246 160.824C74.564 160.824 74.7435 160.964 74.7435 161.15C74.7435 161.335 74.564 161.475 74.3246 161.475C74.0853 161.475 73.9058 161.335 73.9058 161.15Z" fill="#FF1E1E"/>
<path d="M27.1733 94.5812C27.1733 94.3953 27.3528 94.256 27.5922 94.256C27.8315 94.256 28.0111 94.3953 28.0111 94.5812C28.0111 94.767 27.8315 94.9063 27.5922 94.9063C27.3528 94.9063 27.1733 94.767 27.1733 94.5812Z" fill="#FF1E1E"/>
<ellipse cx="106.337" cy="104.244" rx="0.418857" ry="0.325177" fill="#FF1E1E"/>
<ellipse cx="41.5341" cy="138.294" rx="0.418857" ry="0.325177" fill="#FF1E1E"/>
<path d="M101.67 138.341C101.67 138.155 101.849 138.016 102.089 138.016C102.328 138.016 102.508 138.155 102.508 138.341C102.508 138.527 102.328 138.666 102.089 138.666C101.849 138.666 101.67 138.527 101.67 138.341Z" fill="#FF1E1E"/>
<path d="M30.2246 163.379C30.2246 163.194 30.4041 163.054 30.6435 163.054C30.8828 163.054 31.0623 163.194 31.0623 163.379C31.0623 163.565 30.8828 163.705 30.6435 163.705C30.4041 163.705 30.2246 163.565 30.2246 163.379Z" fill="#FF1E1E"/>
<ellipse cx="98.3788" cy="114.928" rx="0.418857" ry="0.325177" fill="#FF1E1E"/>
<ellipse cx="122.482" cy="122.261" rx="0.418857" ry="0.325177" fill="#00FFC6"/>
<ellipse cx="125.893" cy="121.192" rx="0.418857" ry="0.325177" fill="#00FFC6"/>
<path d="M98.9663 129.415C98.9663 129.229 99.1458 129.089 99.3852 129.089C99.6245 129.089 99.804 129.229 99.804 129.415C99.804 129.6 99.6245 129.74 99.3852 129.74C99.1458 129.74 98.9663 129.6 98.9663 129.415Z" fill="#00FFC6"/>
<path d="M75.6899 124.026C75.6899 123.84 75.8695 123.701 76.1088 123.701C76.3481 123.701 76.5277 123.84 76.5277 124.026C76.5277 124.212 76.3481 124.351 76.1088 124.351C75.8695 124.351 75.6899 124.212 75.6899 124.026Z" fill="#00FFC6"/>
<ellipse cx="99.6845" cy="112.227" rx="0.418857" ry="0.325177" fill="#00FFC6"/>
<ellipse cx="102.557" cy="103.354" rx="0.418857" ry="0.325177" fill="#00FFC6"/>
<ellipse cx="60.7309" cy="108.928" rx="0.418857" ry="0.325177" fill="#00FFC6"/>
<ellipse cx="58.3969" cy="102.843" rx="0.418857" ry="0.325177" fill="#00FFC6"/>
<path d="M88.9736 113.156C88.9736 112.97 89.1531 112.83 89.3925 112.83C89.6318 112.83 89.8113 112.97 89.8113 113.156C89.8113 113.341 89.6318 113.481 89.3925 113.481C89.1531 113.481 88.9736 113.341 88.9736 113.156Z" fill="#00FFC6"/>
<path d="M28 146.881C28 146.695 28.1795 146.556 28.4189 146.556C28.6582 146.556 28.8377 146.695 28.8377 146.881C28.8377 147.067 28.6582 147.206 28.4189 147.206C28.1795 147.206 28 147.021 28 146.881Z" fill="#00FFC6"/>
<path d="M56.8413 70.3252C56.8413 70.1394 57.0208 70 57.2602 70C57.4995 70 57.679 70.1394 57.679 70.3252C57.679 70.511 57.4995 70.6504 57.2602 70.6504C57.0208 70.6504 56.8413 70.511 56.8413 70.3252Z" fill="#00FFC6"/>
<path d="M144.801 107.721C144.801 107.535 144.981 107.395 145.22 107.395C145.459 107.395 145.639 107.535 145.639 107.721C145.639 107.906 145.459 108.046 145.22 108.046C144.981 107.999 144.801 107.86 144.801 107.721Z" fill="#00FFC6"/>
<path d="M91.9058 174.15C91.9058 173.964 92.0853 173.824 92.3246 173.824C92.564 173.824 92.7435 173.964 92.7435 174.15C92.7435 174.335 92.564 174.475 92.3246 174.475C92.0853 174.475 91.9058 174.335 91.9058 174.15Z" fill="#00FFC6"/>
<path d="M45.1733 107.581C45.1733 107.395 45.3528 107.256 45.5922 107.256C45.8315 107.256 46.0111 107.395 46.0111 107.581C46.0111 107.767 45.8315 107.906 45.5922 107.906C45.3528 107.906 45.1733 107.767 45.1733 107.581Z" fill="#00FFC6"/>
<ellipse cx="124.337" cy="117.244" rx="0.418857" ry="0.325177" fill="#00FFC6"/>
<ellipse cx="59.5341" cy="151.294" rx="0.418857" ry="0.325177" fill="#00FFC6"/>
<path d="M119.67 151.341C119.67 151.155 119.849 151.016 120.089 151.016C120.328 151.016 120.508 151.155 120.508 151.341C120.508 151.527 120.328 151.666 120.089 151.666C119.849 151.666 119.67 151.527 119.67 151.341Z" fill="#00FFC6"/>
<path d="M48.2246 176.379C48.2246 176.194 48.4041 176.054 48.6435 176.054C48.8828 176.054 49.0623 176.194 49.0623 176.379C49.0623 176.565 48.8828 176.705 48.6435 176.705C48.4041 176.705 48.2246 176.565 48.2246 176.379Z" fill="#00FFC6"/>
<ellipse cx="116.379" cy="127.928" rx="0.418857" ry="0.325177" fill="#00FFC6"/>
<ellipse cx="94.4823" cy="133.261" rx="0.418857" ry="0.325177" fill="#E500F7"/>
<ellipse cx="97.893" cy="132.192" rx="0.418857" ry="0.325177" fill="#E500F7"/>
<path d="M70.9663 140.415C70.9663 140.229 71.1458 140.089 71.3852 140.089C71.6245 140.089 71.804 140.229 71.804 140.415C71.804 140.6 71.6245 140.74 71.3852 140.74C71.1458 140.74 70.9663 140.6 70.9663 140.415Z" fill="#E500F7"/>
<path d="M47.6899 135.026C47.6899 134.84 47.8695 134.701 48.1088 134.701C48.3481 134.701 48.5277 134.84 48.5277 135.026C48.5277 135.212 48.3481 135.351 48.1088 135.351C47.8695 135.351 47.6899 135.212 47.6899 135.026Z" fill="#E500F7"/>
<ellipse cx="71.6845" cy="123.227" rx="0.418857" ry="0.325177" fill="#E500F7"/>
<ellipse cx="74.5565" cy="114.354" rx="0.418857" ry="0.325177" fill="#E500F7"/>
<ellipse cx="32.7309" cy="119.928" rx="0.418857" ry="0.325177" fill="#E500F7"/>
<ellipse cx="30.3969" cy="113.843" rx="0.418857" ry="0.325177" fill="#E500F7"/>
<path d="M60.9736 124.156C60.9736 123.97 61.1531 123.83 61.3925 123.83C61.6318 123.83 61.8113 123.97 61.8113 124.156C61.8113 124.341 61.6318 124.481 61.3925 124.481C61.1531 124.481 60.9736 124.341 60.9736 124.156Z" fill="#E500F7"/>
<path d="M0 157.881C0 157.695 0.17951 157.556 0.418857 157.556C0.658203 157.556 0.837713 157.695 0.837713 157.881C0.837713 158.067 0.658203 158.206 0.418857 158.206C0.17951 158.206 0 158.021 0 157.881Z" fill="#E500F7"/>
<path d="M28.8413 81.3252C28.8413 81.1394 29.0208 81 29.2602 81C29.4995 81 29.679 81.1394 29.679 81.3252C29.679 81.511 29.4995 81.6504 29.2602 81.6504C29.0208 81.6504 28.8413 81.511 28.8413 81.3252Z" fill="#E500F7"/>
<path d="M116.801 118.721C116.801 118.535 116.981 118.395 117.22 118.395C117.459 118.395 117.639 118.535 117.639 118.721C117.639 118.906 117.459 119.046 117.22 119.046C116.981 118.999 116.801 118.86 116.801 118.721Z" fill="#E500F7"/>
<path d="M63.9058 185.15C63.9058 184.964 64.0853 184.824 64.3246 184.824C64.564 184.824 64.7435 184.964 64.7435 185.15C64.7435 185.335 64.564 185.475 64.3246 185.475C64.0853 185.475 63.9058 185.335 63.9058 185.15Z" fill="#E500F7"/>
<path d="M17.1733 118.581C17.1733 118.395 17.3528 118.256 17.5922 118.256C17.8315 118.256 18.0111 118.395 18.0111 118.581C18.0111 118.767 17.8315 118.906 17.5922 118.906C17.3528 118.906 17.1733 118.767 17.1733 118.581Z" fill="#E500F7"/>
<ellipse cx="96.3368" cy="128.244" rx="0.418857" ry="0.325177" fill="#E500F7"/>
<ellipse cx="31.5341" cy="162.294" rx="0.418857" ry="0.325177" fill="#E500F7"/>
<path d="M91.6699 162.341C91.6699 162.155 91.8494 162.016 92.0888 162.016C92.3281 162.016 92.5076 162.155 92.5076 162.341C92.5076 162.527 92.3281 162.666 92.0888 162.666C91.8494 162.666 91.6699 162.527 91.6699 162.341Z" fill="#E500F7"/>
<path d="M20.2246 187.379C20.2246 187.194 20.4041 187.054 20.6435 187.054C20.8828 187.054 21.0623 187.194 21.0623 187.379C21.0623 187.565 20.8828 187.705 20.6435 187.705C20.4041 187.705 20.2246 187.565 20.2246 187.379Z" fill="#E500F7"/>
<ellipse cx="88.3788" cy="138.928" rx="0.418857" ry="0.325177" fill="#E500F7"/>
</g>
<g opacity="0.489932">
<ellipse cx="209.482" cy="151.261" rx="0.418857" ry="0.325177" fill="#0062FF"/>
<ellipse cx="212.893" cy="150.192" rx="0.418857" ry="0.325177" fill="#0062FF"/>
<path d="M185.966 158.415C185.966 158.229 186.146 158.089 186.385 158.089C186.625 158.089 186.804 158.229 186.804 158.415C186.804 158.6 186.625 158.74 186.385 158.74C186.146 158.74 185.966 158.6 185.966 158.415Z" fill="#0062FF"/>
<path d="M162.69 153.026C162.69 152.84 162.869 152.701 163.109 152.701C163.348 152.701 163.528 152.84 163.528 153.026C163.528 153.212 163.348 153.351 163.109 153.351C162.869 153.351 162.69 153.212 162.69 153.026Z" fill="#0062FF"/>
<ellipse cx="186.684" cy="141.227" rx="0.418857" ry="0.325177" fill="#0062FF"/>
<ellipse cx="189.557" cy="132.354" rx="0.418857" ry="0.325177" fill="#0062FF"/>
<ellipse cx="147.731" cy="137.928" rx="0.418857" ry="0.325177" fill="#0062FF"/>
<ellipse cx="145.397" cy="131.843" rx="0.418857" ry="0.325177" fill="#0062FF"/>
<path d="M175.974 142.156C175.974 141.97 176.153 141.83 176.392 141.83C176.632 141.83 176.811 141.97 176.811 142.156C176.811 142.341 176.632 142.481 176.392 142.481C176.153 142.481 175.974 142.341 175.974 142.156Z" fill="#0062FF"/>
<path d="M115 175.881C115 175.695 115.18 175.556 115.419 175.556C115.658 175.556 115.838 175.695 115.838 175.881C115.838 176.067 115.658 176.206 115.419 176.206C115.18 176.206 115 176.021 115 175.881Z" fill="#0062FF"/>
<path d="M143.841 99.3252C143.841 99.1394 144.021 99 144.26 99C144.5 99 144.679 99.1394 144.679 99.3252C144.679 99.511 144.5 99.6504 144.26 99.6504C144.021 99.6504 143.841 99.511 143.841 99.3252Z" fill="#0062FF"/>
<path d="M231.801 136.721C231.801 136.535 231.981 136.395 232.22 136.395C232.459 136.395 232.639 136.535 232.639 136.721C232.639 136.906 232.459 137.046 232.22 137.046C231.981 136.999 231.801 136.86 231.801 136.721Z" fill="#0062FF"/>
<path d="M178.906 203.15C178.906 202.964 179.085 202.824 179.325 202.824C179.564 202.824 179.743 202.964 179.743 203.15C179.743 203.335 179.564 203.475 179.325 203.475C179.085 203.475 178.906 203.335 178.906 203.15Z" fill="#0062FF"/>
<path d="M132.173 136.581C132.173 136.395 132.353 136.256 132.592 136.256C132.832 136.256 133.011 136.395 133.011 136.581C133.011 136.767 132.832 136.906 132.592 136.906C132.353 136.906 132.173 136.767 132.173 136.581Z" fill="#0062FF"/>
<ellipse cx="211.337" cy="146.244" rx="0.418857" ry="0.325177" fill="#0062FF"/>
<ellipse cx="146.534" cy="180.294" rx="0.418857" ry="0.325177" fill="#0062FF"/>
<path d="M206.67 180.341C206.67 180.155 206.849 180.016 207.089 180.016C207.328 180.016 207.508 180.155 207.508 180.341C207.508 180.527 207.328 180.666 207.089 180.666C206.849 180.666 206.67 180.527 206.67 180.341Z" fill="#0062FF"/>
<path d="M135.225 205.379C135.225 205.194 135.404 205.054 135.643 205.054C135.883 205.054 136.062 205.194 136.062 205.379C136.062 205.565 135.883 205.705 135.643 205.705C135.404 205.705 135.225 205.565 135.225 205.379Z" fill="#0062FF"/>
<ellipse cx="203.379" cy="156.928" rx="0.418857" ry="0.325177" fill="#0062FF"/>
<ellipse cx="200.482" cy="140.261" rx="0.418857" ry="0.325177" fill="#FF1E1E"/>
<ellipse cx="203.893" cy="139.192" rx="0.418857" ry="0.325177" fill="#FF1E1E"/>
<path d="M176.966 147.415C176.966 147.229 177.146 147.089 177.385 147.089C177.625 147.089 177.804 147.229 177.804 147.415C177.804 147.6 177.625 147.74 177.385 147.74C177.146 147.74 176.966 147.6 176.966 147.415Z" fill="#FF1E1E"/>
<path d="M153.69 142.026C153.69 141.84 153.869 141.701 154.109 141.701C154.348 141.701 154.528 141.84 154.528 142.026C154.528 142.212 154.348 142.351 154.109 142.351C153.869 142.351 153.69 142.212 153.69 142.026Z" fill="#FF1E1E"/>
<ellipse cx="177.684" cy="130.227" rx="0.418857" ry="0.325177" fill="#FF1E1E"/>
<ellipse cx="180.557" cy="121.354" rx="0.418857" ry="0.325177" fill="#FF1E1E"/>
<ellipse cx="138.731" cy="126.928" rx="0.418857" ry="0.325177" fill="#FF1E1E"/>
<ellipse cx="136.397" cy="120.843" rx="0.418857" ry="0.325177" fill="#FF1E1E"/>
<path d="M166.974 131.156C166.974 130.97 167.153 130.83 167.392 130.83C167.632 130.83 167.811 130.97 167.811 131.156C167.811 131.341 167.632 131.481 167.392 131.481C167.153 131.481 166.974 131.341 166.974 131.156Z" fill="#FF1E1E"/>
<path d="M106 164.881C106 164.695 106.18 164.556 106.419 164.556C106.658 164.556 106.838 164.695 106.838 164.881C106.838 165.067 106.658 165.206 106.419 165.206C106.18 165.206 106 165.021 106 164.881Z" fill="#FF1E1E"/>
<path d="M134.841 88.3252C134.841 88.1394 135.021 88 135.26 88C135.5 88 135.679 88.1394 135.679 88.3252C135.679 88.511 135.5 88.6504 135.26 88.6504C135.021 88.6504 134.841 88.511 134.841 88.3252Z" fill="#FF1E1E"/>
<path d="M222.801 125.721C222.801 125.535 222.981 125.395 223.22 125.395C223.459 125.395 223.639 125.535 223.639 125.721C223.639 125.906 223.459 126.046 223.22 126.046C222.981 125.999 222.801 125.86 222.801 125.721Z" fill="#FF1E1E"/>
<path d="M169.906 192.15C169.906 191.964 170.085 191.824 170.325 191.824C170.564 191.824 170.743 191.964 170.743 192.15C170.743 192.335 170.564 192.475 170.325 192.475C170.085 192.475 169.906 192.335 169.906 192.15Z" fill="#FF1E1E"/>
<path d="M123.173 125.581C123.173 125.395 123.353 125.256 123.592 125.256C123.832 125.256 124.011 125.395 124.011 125.581C124.011 125.767 123.832 125.906 123.592 125.906C123.353 125.906 123.173 125.767 123.173 125.581Z" fill="#FF1E1E"/>
<ellipse cx="202.337" cy="135.244" rx="0.418857" ry="0.325177" fill="#FF1E1E"/>
<ellipse cx="137.534" cy="169.294" rx="0.418857" ry="0.325177" fill="#FF1E1E"/>
<path d="M197.67 169.341C197.67 169.155 197.849 169.016 198.089 169.016C198.328 169.016 198.508 169.155 198.508 169.341C198.508 169.527 198.328 169.666 198.089 169.666C197.849 169.666 197.67 169.527 197.67 169.341Z" fill="#FF1E1E"/>
<path d="M126.225 194.379C126.225 194.194 126.404 194.054 126.643 194.054C126.883 194.054 127.062 194.194 127.062 194.379C127.062 194.565 126.883 194.705 126.643 194.705C126.404 194.705 126.225 194.565 126.225 194.379Z" fill="#FF1E1E"/>
<ellipse cx="194.379" cy="145.928" rx="0.418857" ry="0.325177" fill="#FF1E1E"/>
<ellipse cx="218.482" cy="153.261" rx="0.418857" ry="0.325177" fill="#00FFC6"/>
<ellipse cx="221.893" cy="152.192" rx="0.418857" ry="0.325177" fill="#00FFC6"/>
<path d="M194.966 160.415C194.966 160.229 195.146 160.089 195.385 160.089C195.625 160.089 195.804 160.229 195.804 160.415C195.804 160.6 195.625 160.74 195.385 160.74C195.146 160.74 194.966 160.6 194.966 160.415Z" fill="#00FFC6"/>
<path d="M171.69 155.026C171.69 154.84 171.869 154.701 172.109 154.701C172.348 154.701 172.528 154.84 172.528 155.026C172.528 155.212 172.348 155.351 172.109 155.351C171.869 155.351 171.69 155.212 171.69 155.026Z" fill="#00FFC6"/>
<ellipse cx="195.684" cy="143.227" rx="0.418857" ry="0.325177" fill="#00FFC6"/>
<ellipse cx="198.557" cy="134.354" rx="0.418857" ry="0.325177" fill="#00FFC6"/>
<ellipse cx="156.731" cy="139.928" rx="0.418857" ry="0.325177" fill="#00FFC6"/>
<ellipse cx="154.397" cy="133.843" rx="0.418857" ry="0.325177" fill="#00FFC6"/>
<path d="M184.974 144.156C184.974 143.97 185.153 143.83 185.392 143.83C185.632 143.83 185.811 143.97 185.811 144.156C185.811 144.341 185.632 144.481 185.392 144.481C185.153 144.481 184.974 144.341 184.974 144.156Z" fill="#00FFC6"/>
<path d="M124 177.881C124 177.695 124.18 177.556 124.419 177.556C124.658 177.556 124.838 177.695 124.838 177.881C124.838 178.067 124.658 178.206 124.419 178.206C124.18 178.206 124 178.021 124 177.881Z" fill="#00FFC6"/>
<path d="M152.841 101.325C152.841 101.139 153.021 101 153.26 101C153.5 101 153.679 101.139 153.679 101.325C153.679 101.511 153.5 101.65 153.26 101.65C153.021 101.65 152.841 101.511 152.841 101.325Z" fill="#00FFC6"/>
<path d="M240.801 138.721C240.801 138.535 240.981 138.395 241.22 138.395C241.459 138.395 241.639 138.535 241.639 138.721C241.639 138.906 241.459 139.046 241.22 139.046C240.981 138.999 240.801 138.86 240.801 138.721Z" fill="#00FFC6"/>
<path d="M187.906 205.15C187.906 204.964 188.085 204.824 188.325 204.824C188.564 204.824 188.743 204.964 188.743 205.15C188.743 205.335 188.564 205.475 188.325 205.475C188.085 205.475 187.906 205.335 187.906 205.15Z" fill="#00FFC6"/>
<path d="M141.173 138.581C141.173 138.395 141.353 138.256 141.592 138.256C141.832 138.256 142.011 138.395 142.011 138.581C142.011 138.767 141.832 138.906 141.592 138.906C141.353 138.906 141.173 138.767 141.173 138.581Z" fill="#00FFC6"/>
<ellipse cx="220.337" cy="148.244" rx="0.418857" ry="0.325177" fill="#00FFC6"/>
<ellipse cx="155.534" cy="182.294" rx="0.418857" ry="0.325177" fill="#00FFC6"/>
<path d="M215.67 182.341C215.67 182.155 215.849 182.016 216.089 182.016C216.328 182.016 216.508 182.155 216.508 182.341C216.508 182.527 216.328 182.666 216.089 182.666C215.849 182.666 215.67 182.527 215.67 182.341Z" fill="#00FFC6"/>
<path d="M144.225 207.379C144.225 207.194 144.404 207.054 144.643 207.054C144.883 207.054 145.062 207.194 145.062 207.379C145.062 207.565 144.883 207.705 144.643 207.705C144.404 207.705 144.225 207.565 144.225 207.379Z" fill="#00FFC6"/>
<ellipse cx="212.379" cy="158.928" rx="0.418857" ry="0.325177" fill="#00FFC6"/>
<ellipse cx="190.482" cy="164.261" rx="0.418857" ry="0.325177" fill="#E500F7"/>
<ellipse cx="193.893" cy="163.192" rx="0.418857" ry="0.325177" fill="#E500F7"/>
<path d="M166.966 171.415C166.966 171.229 167.146 171.089 167.385 171.089C167.625 171.089 167.804 171.229 167.804 171.415C167.804 171.6 167.625 171.74 167.385 171.74C167.146 171.74 166.966 171.6 166.966 171.415Z" fill="#E500F7"/>
<path d="M143.69 166.026C143.69 165.84 143.869 165.701 144.109 165.701C144.348 165.701 144.528 165.84 144.528 166.026C144.528 166.212 144.348 166.351 144.109 166.351C143.869 166.351 143.69 166.212 143.69 166.026Z" fill="#E500F7"/>
<ellipse cx="167.684" cy="154.227" rx="0.418857" ry="0.325177" fill="#E500F7"/>
<ellipse cx="170.557" cy="145.354" rx="0.418857" ry="0.325177" fill="#E500F7"/>
<ellipse cx="128.731" cy="150.928" rx="0.418857" ry="0.325177" fill="#E500F7"/>
<ellipse cx="126.397" cy="144.843" rx="0.418857" ry="0.325177" fill="#E500F7"/>
<path d="M156.974 155.156C156.974 154.97 157.153 154.83 157.392 154.83C157.632 154.83 157.811 154.97 157.811 155.156C157.811 155.341 157.632 155.481 157.392 155.481C157.153 155.481 156.974 155.341 156.974 155.156Z" fill="#E500F7"/>
<path d="M96 188.881C96 188.695 96.1795 188.556 96.4189 188.556C96.6582 188.556 96.8377 188.695 96.8377 188.881C96.8377 189.067 96.6582 189.206 96.4189 189.206C96.1795 189.206 96 189.021 96 188.881Z" fill="#E500F7"/>
<path d="M124.841 112.325C124.841 112.139 125.021 112 125.26 112C125.5 112 125.679 112.139 125.679 112.325C125.679 112.511 125.5 112.65 125.26 112.65C125.021 112.65 124.841 112.511 124.841 112.325Z" fill="#E500F7"/>
<path d="M212.801 149.721C212.801 149.535 212.981 149.395 213.22 149.395C213.459 149.395 213.639 149.535 213.639 149.721C213.639 149.906 213.459 150.046 213.22 150.046C212.981 149.999 212.801 149.86 212.801 149.721Z" fill="#E500F7"/>
<path d="M159.906 216.15C159.906 215.964 160.085 215.824 160.325 215.824C160.564 215.824 160.743 215.964 160.743 216.15C160.743 216.335 160.564 216.475 160.325 216.475C160.085 216.475 159.906 216.335 159.906 216.15Z" fill="#E500F7"/>
<path d="M113.173 149.581C113.173 149.395 113.353 149.256 113.592 149.256C113.832 149.256 114.011 149.395 114.011 149.581C114.011 149.767 113.832 149.906 113.592 149.906C113.353 149.906 113.173 149.767 113.173 149.581Z" fill="#E500F7"/>
<ellipse cx="192.337" cy="159.244" rx="0.418857" ry="0.325177" fill="#E500F7"/>
<ellipse cx="127.534" cy="193.294" rx="0.418857" ry="0.325177" fill="#E500F7"/>
<path d="M187.67 193.341C187.67 193.155 187.849 193.016 188.089 193.016C188.328 193.016 188.508 193.155 188.508 193.341C188.508 193.527 188.328 193.666 188.089 193.666C187.849 193.666 187.67 193.527 187.67 193.341Z" fill="#E500F7"/>
<path d="M116.225 218.379C116.225 218.194 116.404 218.054 116.643 218.054C116.883 218.054 117.062 218.194 117.062 218.379C117.062 218.565 116.883 218.705 116.643 218.705C116.404 218.705 116.225 218.565 116.225 218.379Z" fill="#E500F7"/>
<ellipse cx="184.379" cy="169.928" rx="0.418857" ry="0.325177" fill="#E500F7"/>
</g>
<g opacity="0.574567">
<ellipse cx="219.482" cy="63.2606" rx="0.418857" ry="0.325177" fill="#0062FF"/>
<ellipse cx="222.893" cy="62.1922" rx="0.418857" ry="0.325177" fill="#0062FF"/>
<path d="M195.966 70.4145C195.966 70.2287 196.146 70.0894 196.385 70.0894C196.625 70.0894 196.804 70.2287 196.804 70.4145C196.804 70.6003 196.625 70.7397 196.385 70.7397C196.146 70.7397 195.966 70.6003 195.966 70.4145Z" fill="#0062FF"/>
<path d="M172.69 65.0259C172.69 64.84 172.869 64.7007 173.109 64.7007C173.348 64.7007 173.528 64.84 173.528 65.0259C173.528 65.2117 173.348 65.351 173.109 65.351C172.869 65.351 172.69 65.2117 172.69 65.0259Z" fill="#0062FF"/>
<ellipse cx="196.684" cy="53.2265" rx="0.418857" ry="0.325177" fill="#0062FF"/>
<ellipse cx="199.557" cy="44.3539" rx="0.418857" ry="0.325177" fill="#0062FF"/>
<ellipse cx="157.731" cy="49.9283" rx="0.418857" ry="0.325177" fill="#0062FF"/>
<ellipse cx="155.397" cy="43.8429" rx="0.418857" ry="0.325177" fill="#0062FF"/>
<path d="M185.974 54.1556C185.974 53.9698 186.153 53.8304 186.392 53.8304C186.632 53.8304 186.811 53.9698 186.811 54.1556C186.811 54.3414 186.632 54.4808 186.392 54.4808C186.153 54.4808 185.974 54.3414 185.974 54.1556Z" fill="#0062FF"/>
<path d="M125 87.8812C125 87.6954 125.18 87.556 125.419 87.556C125.658 87.556 125.838 87.6954 125.838 87.8812C125.838 88.067 125.658 88.2064 125.419 88.2064C125.18 88.2064 125 88.0206 125 87.8812Z" fill="#0062FF"/>
<path d="M153.841 11.3252C153.841 11.1394 154.021 11 154.26 11C154.5 11 154.679 11.1394 154.679 11.3252C154.679 11.511 154.5 11.6504 154.26 11.6504C154.021 11.6504 153.841 11.511 153.841 11.3252Z" fill="#0062FF"/>
<path d="M241.801 48.7206C241.801 48.5347 241.981 48.3954 242.22 48.3954C242.459 48.3954 242.639 48.5347 242.639 48.7206C242.639 48.9064 242.459 49.0457 242.22 49.0457C241.981 48.9993 241.801 48.8599 241.801 48.7206Z" fill="#0062FF"/>
<path d="M188.906 115.15C188.906 114.964 189.085 114.824 189.325 114.824C189.564 114.824 189.743 114.964 189.743 115.15C189.743 115.335 189.564 115.475 189.325 115.475C189.085 115.475 188.906 115.335 188.906 115.15Z" fill="#0062FF"/>
<path d="M142.173 48.5812C142.173 48.3953 142.353 48.256 142.592 48.256C142.832 48.256 143.011 48.3953 143.011 48.5812C143.011 48.767 142.832 48.9063 142.592 48.9063C142.353 48.9063 142.173 48.767 142.173 48.5812Z" fill="#0062FF"/>
<ellipse cx="221.337" cy="58.2436" rx="0.418857" ry="0.325177" fill="#0062FF"/>
<ellipse cx="156.534" cy="92.2943" rx="0.418857" ry="0.325177" fill="#0062FF"/>
<path d="M216.67 92.3408C216.67 92.155 216.849 92.0156 217.089 92.0156C217.328 92.0156 217.508 92.155 217.508 92.3408C217.508 92.5266 217.328 92.666 217.089 92.666C216.849 92.666 216.67 92.5266 216.67 92.3408Z" fill="#0062FF"/>
<path d="M145.225 117.379C145.225 117.194 145.404 117.054 145.643 117.054C145.883 117.054 146.062 117.194 146.062 117.379C146.062 117.565 145.883 117.705 145.643 117.705C145.404 117.705 145.225 117.565 145.225 117.379Z" fill="#0062FF"/>
<ellipse cx="213.379" cy="68.928" rx="0.418857" ry="0.325177" fill="#0062FF"/>
<ellipse cx="210.482" cy="52.2606" rx="0.418857" ry="0.325177" fill="#FF1E1E"/>
<ellipse cx="213.893" cy="51.1922" rx="0.418857" ry="0.325177" fill="#FF1E1E"/>
<path d="M186.966 59.4145C186.966 59.2287 187.146 59.0894 187.385 59.0894C187.625 59.0894 187.804 59.2287 187.804 59.4145C187.804 59.6003 187.625 59.7397 187.385 59.7397C187.146 59.7397 186.966 59.6003 186.966 59.4145Z" fill="#FF1E1E"/>
<path d="M163.69 54.0259C163.69 53.84 163.869 53.7007 164.109 53.7007C164.348 53.7007 164.528 53.84 164.528 54.0259C164.528 54.2117 164.348 54.351 164.109 54.351C163.869 54.351 163.69 54.2117 163.69 54.0259Z" fill="#FF1E1E"/>
<ellipse cx="187.684" cy="42.2265" rx="0.418857" ry="0.325177" fill="#FF1E1E"/>
<ellipse cx="190.557" cy="33.3539" rx="0.418857" ry="0.325177" fill="#FF1E1E"/>
<ellipse cx="148.731" cy="38.9283" rx="0.418857" ry="0.325177" fill="#FF1E1E"/>
<ellipse cx="146.397" cy="32.8429" rx="0.418857" ry="0.325177" fill="#FF1E1E"/>
<path d="M176.974 43.1556C176.974 42.9698 177.153 42.8304 177.392 42.8304C177.632 42.8304 177.811 42.9698 177.811 43.1556C177.811 43.3414 177.632 43.4808 177.392 43.4808C177.153 43.4808 176.974 43.3414 176.974 43.1556Z" fill="#FF1E1E"/>
<path d="M116 76.8812C116 76.6954 116.18 76.556 116.419 76.556C116.658 76.556 116.838 76.6954 116.838 76.8812C116.838 77.067 116.658 77.2064 116.419 77.2064C116.18 77.2064 116 77.0206 116 76.8812Z" fill="#FF1E1E"/>
<path d="M144.841 0.325177C144.841 0.139362 145.021 0 145.26 0C145.5 0 145.679 0.139362 145.679 0.325177C145.679 0.510993 145.5 0.650355 145.26 0.650355C145.021 0.650355 144.841 0.510993 144.841 0.325177Z" fill="#FF1E1E"/>
<path d="M232.801 37.7206C232.801 37.5347 232.981 37.3954 233.22 37.3954C233.459 37.3954 233.639 37.5347 233.639 37.7206C233.639 37.9064 233.459 38.0457 233.22 38.0457C232.981 37.9993 232.801 37.8599 232.801 37.7206Z" fill="#FF1E1E"/>
<path d="M179.906 104.15C179.906 103.964 180.085 103.824 180.325 103.824C180.564 103.824 180.743 103.964 180.743 104.15C180.743 104.335 180.564 104.475 180.325 104.475C180.085 104.475 179.906 104.335 179.906 104.15Z" fill="#FF1E1E"/>
<path d="M133.173 37.5812C133.173 37.3953 133.353 37.256 133.592 37.256C133.832 37.256 134.011 37.3953 134.011 37.5812C134.011 37.767 133.832 37.9063 133.592 37.9063C133.353 37.9063 133.173 37.767 133.173 37.5812Z" fill="#FF1E1E"/>
<ellipse cx="212.337" cy="47.2436" rx="0.418857" ry="0.325177" fill="#FF1E1E"/>
<ellipse cx="147.534" cy="81.2943" rx="0.418857" ry="0.325177" fill="#FF1E1E"/>
<path d="M207.67 81.3408C207.67 81.155 207.849 81.0156 208.089 81.0156C208.328 81.0156 208.508 81.155 208.508 81.3408C208.508 81.5266 208.328 81.666 208.089 81.666C207.849 81.666 207.67 81.5266 207.67 81.3408Z" fill="#FF1E1E"/>
<path d="M136.225 106.379C136.225 106.194 136.404 106.054 136.643 106.054C136.883 106.054 137.062 106.194 137.062 106.379C137.062 106.565 136.883 106.705 136.643 106.705C136.404 106.705 136.225 106.565 136.225 106.379Z" fill="#FF1E1E"/>
<ellipse cx="204.379" cy="57.928" rx="0.418857" ry="0.325177" fill="#FF1E1E"/>
<ellipse cx="228.482" cy="65.2606" rx="0.418857" ry="0.325177" fill="#00FFC6"/>
<ellipse cx="231.893" cy="64.1922" rx="0.418857" ry="0.325177" fill="#00FFC6"/>
<path d="M204.966 72.4145C204.966 72.2287 205.146 72.0894 205.385 72.0894C205.625 72.0894 205.804 72.2287 205.804 72.4145C205.804 72.6003 205.625 72.7397 205.385 72.7397C205.146 72.7397 204.966 72.6003 204.966 72.4145Z" fill="#00FFC6"/>
<path d="M181.69 67.0259C181.69 66.84 181.869 66.7007 182.109 66.7007C182.348 66.7007 182.528 66.84 182.528 67.0259C182.528 67.2117 182.348 67.351 182.109 67.351C181.869 67.351 181.69 67.2117 181.69 67.0259Z" fill="#00FFC6"/>
<ellipse cx="205.684" cy="55.2265" rx="0.418857" ry="0.325177" fill="#00FFC6"/>
<ellipse cx="208.557" cy="46.3539" rx="0.418857" ry="0.325177" fill="#00FFC6"/>
<ellipse cx="166.731" cy="51.9283" rx="0.418857" ry="0.325177" fill="#00FFC6"/>
<ellipse cx="164.397" cy="45.8429" rx="0.418857" ry="0.325177" fill="#00FFC6"/>
<path d="M194.974 56.1556C194.974 55.9698 195.153 55.8304 195.392 55.8304C195.632 55.8304 195.811 55.9698 195.811 56.1556C195.811 56.3414 195.632 56.4808 195.392 56.4808C195.153 56.4808 194.974 56.3414 194.974 56.1556Z" fill="#00FFC6"/>
<path d="M134 89.8812C134 89.6954 134.18 89.556 134.419 89.556C134.658 89.556 134.838 89.6954 134.838 89.8812C134.838 90.067 134.658 90.2064 134.419 90.2064C134.18 90.2064 134 90.0206 134 89.8812Z" fill="#00FFC6"/>
<path d="M162.841 13.3252C162.841 13.1394 163.021 13 163.26 13C163.5 13 163.679 13.1394 163.679 13.3252C163.679 13.511 163.5 13.6504 163.26 13.6504C163.021 13.6504 162.841 13.511 162.841 13.3252Z" fill="#00FFC6"/>
<path d="M250.801 50.7206C250.801 50.5347 250.981 50.3954 251.22 50.3954C251.459 50.3954 251.639 50.5347 251.639 50.7206C251.639 50.9064 251.459 51.0457 251.22 51.0457C250.981 50.9993 250.801 50.8599 250.801 50.7206Z" fill="#00FFC6"/>
<path d="M197.906 117.15C197.906 116.964 198.085 116.824 198.325 116.824C198.564 116.824 198.743 116.964 198.743 117.15C198.743 117.335 198.564 117.475 198.325 117.475C198.085 117.475 197.906 117.335 197.906 117.15Z" fill="#00FFC6"/>
<path d="M151.173 50.5812C151.173 50.3953 151.353 50.256 151.592 50.256C151.832 50.256 152.011 50.3953 152.011 50.5812C152.011 50.767 151.832 50.9063 151.592 50.9063C151.353 50.9063 151.173 50.767 151.173 50.5812Z" fill="#00FFC6"/>
<ellipse cx="230.337" cy="60.2436" rx="0.418857" ry="0.325177" fill="#00FFC6"/>
<ellipse cx="165.534" cy="94.2943" rx="0.418857" ry="0.325177" fill="#00FFC6"/>
<path d="M225.67 94.3408C225.67 94.155 225.849 94.0156 226.089 94.0156C226.328 94.0156 226.508 94.155 226.508 94.3408C226.508 94.5266 226.328 94.666 226.089 94.666C225.849 94.666 225.67 94.5266 225.67 94.3408Z" fill="#00FFC6"/>
<path d="M154.225 119.379C154.225 119.194 154.404 119.054 154.643 119.054C154.883 119.054 155.062 119.194 155.062 119.379C155.062 119.565 154.883 119.705 154.643 119.705C154.404 119.705 154.225 119.565 154.225 119.379Z" fill="#00FFC6"/>
<ellipse cx="222.379" cy="70.928" rx="0.418857" ry="0.325177" fill="#00FFC6"/>
<ellipse cx="200.482" cy="76.2606" rx="0.418857" ry="0.325177" fill="#E500F7"/>
<ellipse cx="203.893" cy="75.1922" rx="0.418857" ry="0.325177" fill="#E500F7"/>
<path d="M176.966 83.4145C176.966 83.2287 177.146 83.0894 177.385 83.0894C177.625 83.0894 177.804 83.2287 177.804 83.4145C177.804 83.6003 177.625 83.7397 177.385 83.7397C177.146 83.7397 176.966 83.6003 176.966 83.4145Z" fill="#E500F7"/>
<path d="M153.69 78.0259C153.69 77.84 153.869 77.7007 154.109 77.7007C154.348 77.7007 154.528 77.84 154.528 78.0259C154.528 78.2117 154.348 78.351 154.109 78.351C153.869 78.351 153.69 78.2117 153.69 78.0259Z" fill="#E500F7"/>
<ellipse cx="177.684" cy="66.2265" rx="0.418857" ry="0.325177" fill="#E500F7"/>
<ellipse cx="180.557" cy="57.3539" rx="0.418857" ry="0.325177" fill="#E500F7"/>
<ellipse cx="138.731" cy="62.9283" rx="0.418857" ry="0.325177" fill="#E500F7"/>
<ellipse cx="136.397" cy="56.8429" rx="0.418857" ry="0.325177" fill="#E500F7"/>
<path d="M166.974 67.1556C166.974 66.9698 167.153 66.8304 167.392 66.8304C167.632 66.8304 167.811 66.9698 167.811 67.1556C167.811 67.3414 167.632 67.4808 167.392 67.4808C167.153 67.4808 166.974 67.3414 166.974 67.1556Z" fill="#E500F7"/>
<path d="M106 100.881C106 100.695 106.18 100.556 106.419 100.556C106.658 100.556 106.838 100.695 106.838 100.881C106.838 101.067 106.658 101.206 106.419 101.206C106.18 101.206 106 101.021 106 100.881Z" fill="#E500F7"/>
<path d="M134.841 24.3252C134.841 24.1394 135.021 24 135.26 24C135.5 24 135.679 24.1394 135.679 24.3252C135.679 24.511 135.5 24.6504 135.26 24.6504C135.021 24.6504 134.841 24.511 134.841 24.3252Z" fill="#E500F7"/>
<path d="M222.801 61.7206C222.801 61.5347 222.981 61.3954 223.22 61.3954C223.459 61.3954 223.639 61.5347 223.639 61.7206C223.639 61.9064 223.459 62.0457 223.22 62.0457C222.981 61.9993 222.801 61.8599 222.801 61.7206Z" fill="#E500F7"/>
<path d="M169.906 128.15C169.906 127.964 170.085 127.824 170.325 127.824C170.564 127.824 170.743 127.964 170.743 128.15C170.743 128.335 170.564 128.475 170.325 128.475C170.085 128.475 169.906 128.335 169.906 128.15Z" fill="#E500F7"/>
<path d="M123.173 61.5812C123.173 61.3953 123.353 61.256 123.592 61.256C123.832 61.256 124.011 61.3953 124.011 61.5812C124.011 61.767 123.832 61.9063 123.592 61.9063C123.353 61.9063 123.173 61.767 123.173 61.5812Z" fill="#E500F7"/>
<ellipse cx="202.337" cy="71.2436" rx="0.418857" ry="0.325177" fill="#E500F7"/>
<ellipse cx="137.534" cy="105.294" rx="0.418857" ry="0.325177" fill="#E500F7"/>
<path d="M197.67 105.341C197.67 105.155 197.849 105.016 198.089 105.016C198.328 105.016 198.508 105.155 198.508 105.341C198.508 105.527 198.328 105.666 198.089 105.666C197.849 105.666 197.67 105.527 197.67 105.341Z" fill="#E500F7"/>
<path d="M126.225 130.379C126.225 130.194 126.404 130.054 126.643 130.054C126.883 130.054 127.062 130.194 127.062 130.379C127.062 130.565 126.883 130.705 126.643 130.705C126.404 130.705 126.225 130.565 126.225 130.379Z" fill="#E500F7"/>
<ellipse cx="194.379" cy="81.928" rx="0.418857" ry="0.325177" fill="#E500F7"/>
</g>
</svg>
