<svg width="514" height="38" viewBox="0 0 514 38" fill="none" xmlns="http://www.w3.org/2000/svg">
<path fill-rule="evenodd" clip-rule="evenodd" d="M509.59 0.758462L502.152 8.20658H487.901L480.462 0.758462C479.452 -0.252821 477.82 -0.252821 476.81 0.758462C475.8 1.7659 475.8 3.40395 476.81 4.41523L484.249 11.8633V19C484.249 20.4266 485.405 21.584 486.829 21.584C488.254 21.584 489.41 20.4266 489.41 19V13.3783H503.219C503.903 13.3783 504.56 13.1053 505.044 12.6208L513.239 4.41523C514.249 3.40779 514.249 1.76974 513.239 0.758462C512.233 -0.252821 510.6 -0.252821 509.59 0.758462ZM2.58065 5.16888H35.3649C36.7896 5.16888 37.9456 4.01148 37.9456 2.58492C37.9456 1.15836 36.7896 0.000961265 35.3649 0.000961265H2.58065C1.15592 0.000961265 0 1.15836 0 2.58492C0 4.01148 1.15592 5.16888 2.58065 5.16888ZM21.5554 10.7905V35.4112C21.5554 36.8378 20.3994 37.9952 18.9747 37.9952C17.55 37.9952 16.3941 36.8378 16.3941 35.4112V10.7905C16.3941 9.36398 17.55 8.20658 18.9747 8.20658C20.3994 8.20658 21.5554 9.36398 21.5554 10.7905ZM43.56 37.9952C44.9848 37.9952 46.1407 36.8378 46.1407 35.4112V21.584H68.1453C68.8289 21.584 69.4856 21.311 69.9695 20.8265L78.1646 12.6208C79.1707 11.6134 79.1707 9.97536 78.1646 8.96408L69.9733 0.758462C69.4894 0.273969 68.8327 0.000961265 68.1492 0.000961265H43.56C42.1353 0.000961265 40.9794 1.15836 40.9794 2.58492C40.9794 4.01148 42.1353 5.16888 43.56 5.16888H67.0778L72.6922 10.7905L67.0778 16.4122H43.56C42.1353 16.4122 40.9794 17.5696 40.9794 18.9962V35.4074C40.9794 36.8378 42.1353 37.9952 43.56 37.9952ZM66.3212 25.3753C67.3312 24.3679 68.9671 24.3679 69.9733 25.3753L78.1646 33.5809C79.1707 34.5922 79.1707 36.2303 78.1646 37.2377C77.6615 37.7414 77.001 37.9952 76.3404 37.9952C75.6799 37.9952 75.0194 37.7414 74.5163 37.2377L66.3212 29.0321C65.3151 28.0208 65.3151 26.3827 66.3212 25.3753ZM84.5394 37.9952C85.9641 37.9952 87.12 36.8378 87.12 35.4112V21.584H114.739V35.4112C114.739 36.8378 115.895 37.9952 117.32 37.9952C118.745 37.9952 119.9 36.8378 119.9 35.4112V19.0038C119.9 18.9154 119.897 18.8308 119.889 18.7424L119.883 18.6982L119.877 18.6539L119.854 18.4924C119.85 18.4709 119.845 18.4506 119.839 18.4308C119.835 18.4152 119.831 18.4 119.827 18.3848L119.827 18.3837C119.816 18.3379 119.804 18.2922 119.793 18.2502C119.781 18.2156 119.77 18.181 119.755 18.1425C119.739 18.0964 119.724 18.0541 119.705 18.0118C119.699 17.9981 119.693 17.9844 119.686 17.9703C119.678 17.9528 119.669 17.9348 119.662 17.9157C119.648 17.8812 119.632 17.8488 119.614 17.8154L119.597 17.7811L119.584 17.7585L119.578 17.7488L119.562 17.7211L119.547 17.6965L119.533 17.6728C119.512 17.6356 119.492 17.6007 119.467 17.5657C119.46 17.556 119.452 17.5463 119.445 17.5365L119.445 17.5364C119.431 17.5189 119.417 17.5008 119.405 17.4812C119.39 17.4619 119.375 17.4417 119.361 17.4216C119.347 17.4014 119.332 17.3812 119.317 17.362C119.282 17.3197 119.248 17.285 119.209 17.2466C119.198 17.2351 119.187 17.2235 119.177 17.212C119.166 17.2005 119.155 17.1889 119.144 17.1774L102.758 0.758462C101.751 -0.248975 100.115 -0.248975 99.1055 0.758462C98.0993 1.7659 98.0993 3.40395 99.1055 4.41523L111.091 16.416H84.5394C83.1147 16.416 81.9587 17.5734 81.9587 19V35.4112C81.9587 36.8378 83.1147 37.9952 84.5394 37.9952ZM150.104 37.9952H133.714C133.03 37.9952 132.374 37.7222 131.89 37.2338L123.695 29.0282C123.211 28.5437 122.938 27.8862 122.938 27.2018V10.7905C122.938 10.1061 123.211 9.44857 123.695 8.96408L131.89 0.758462C132.374 0.273969 133.03 0.000961265 133.714 0.000961265H150.104C150.791 0.000961265 151.448 0.273969 151.932 0.758462L160.123 8.96408C161.129 9.97536 161.129 11.6134 160.123 12.6208C159.113 13.6283 157.477 13.6283 156.471 12.6208L149.033 5.17273H134.778L128.096 11.8633V26.1328L134.778 32.8234H149.033L156.471 25.3753C157.481 24.3679 159.117 24.3679 160.123 25.3753C161.129 26.3866 161.129 28.0246 160.123 29.0321L151.928 37.2377C151.444 37.7222 150.788 37.9952 150.104 37.9952ZM166.498 5.16888H199.282C200.707 5.16888 201.863 4.01148 201.863 2.58492C201.863 1.15836 200.707 0.000961265 199.279 0.000961265H166.494C165.07 0.000961265 163.914 1.15836 163.914 2.58492C163.914 4.01148 165.07 5.16888 166.498 5.16888ZM199.282 37.9952H166.498C165.07 37.9952 163.917 36.8378 163.917 35.4112V19C163.917 17.5734 165.073 16.416 166.498 16.416H199.282C200.707 16.416 201.863 17.5734 201.863 19C201.863 20.4266 200.707 21.584 199.282 21.584H169.079V32.8273H199.282C200.707 32.8273 201.863 33.9847 201.863 35.4112C201.863 36.8378 200.707 37.9952 199.282 37.9952ZM248.453 5.16888H281.237C282.662 5.16888 283.818 4.01148 283.818 2.58492C283.818 1.15836 282.662 0.000961265 281.237 0.000961265H248.453C247.028 0.000961265 245.872 1.15836 245.872 2.58492C245.872 4.01148 247.028 5.16888 248.453 5.16888ZM281.237 32.8273C282.662 32.8273 283.818 33.9847 283.818 35.4112C283.818 36.8378 282.662 37.9952 281.241 37.9952H248.457C247.032 37.9952 245.876 36.8378 245.876 35.4112V19C245.876 17.5734 247.032 16.416 248.457 16.416H281.241C282.666 16.416 283.822 17.5734 283.822 19C283.822 20.4266 282.666 21.584 281.241 21.584H251.038V32.8273H281.237ZM240.258 32.8273H210.054V2.58492C210.054 1.15836 208.898 0.000961265 207.474 0.000961265C206.049 0.000961265 204.893 1.15836 204.893 2.58492V35.4112C204.893 36.8378 206.049 37.9952 207.474 37.9952H240.258C241.683 37.9952 242.839 36.8378 242.839 35.4112C242.839 33.9847 241.683 32.8273 240.258 32.8273ZM295.047 18.9962C295.047 17.5696 296.203 16.4122 297.628 16.4122H314.018C315.442 16.4122 316.598 17.5696 316.598 18.9962C316.598 20.4227 315.442 21.5801 314.018 21.5801H297.628C296.203 21.5801 295.047 20.4227 295.047 18.9962ZM291.26 12.6208L298.699 5.17273H312.95L320.389 12.6208C320.892 13.1246 321.552 13.3783 322.213 13.3783C322.873 13.3783 323.534 13.1246 324.037 12.6208C325.043 11.6134 325.043 9.97536 324.037 8.96408L315.846 0.758462C315.362 0.273969 314.705 0.000961265 314.022 0.000961265H297.631C296.948 0.000961265 296.291 0.273969 295.807 0.758462L287.612 8.96408C286.606 9.97152 286.606 11.6096 287.612 12.6208C288.614 13.6283 290.25 13.6283 291.26 12.6208ZM297.628 37.9952C296.944 37.9952 296.287 37.7222 295.803 37.2377L287.608 29.0321C286.602 28.0208 286.602 26.3827 287.608 25.3753C288.618 24.3679 290.254 24.3679 291.26 25.3753L298.699 32.8234H312.95L320.389 25.3753C321.399 24.3679 323.035 24.3679 324.041 25.3753C325.047 26.3866 325.047 28.0246 324.041 29.0321L315.842 37.2377C315.358 37.7222 314.701 37.9952 314.018 37.9952H297.628ZM338.607 16.4122C337.182 16.4122 336.026 17.5696 336.026 18.9962C336.026 20.4227 337.182 21.5801 338.607 21.5801H354.997C356.422 21.5801 357.578 20.4227 357.578 18.9962C357.578 17.5696 356.422 16.4122 354.997 16.4122H338.607ZM339.674 5.17273L332.236 12.6208C331.23 13.6283 329.594 13.6283 328.591 12.6208C327.585 11.6096 327.585 9.97152 328.591 8.96408L336.787 0.758462C337.27 0.273969 337.927 0.000961265 338.611 0.000961265H355.001C355.685 0.000961265 356.341 0.273969 356.825 0.758462L365.016 8.96408C366.022 9.97536 366.022 11.6134 365.016 12.6208C364.513 13.1246 363.853 13.3783 363.192 13.3783C362.532 13.3783 361.871 13.1246 361.368 12.6208L353.93 5.17273H339.674ZM361.372 25.3753L353.933 32.8234H339.678L332.24 25.3753C331.234 24.3679 329.598 24.3679 328.588 25.3753C327.582 26.3827 327.582 28.0208 328.588 29.0321L336.783 37.2377C337.267 37.7222 337.923 37.9952 338.607 37.9952H354.997C355.681 37.9952 356.337 37.7222 356.821 37.2377L365.016 29.0321C366.022 28.0246 366.022 26.3866 365.016 25.3753C364.014 24.3679 362.378 24.3679 361.372 25.3753ZM399.256 35.4112V2.58492C399.256 1.15836 398.1 0.000961265 396.675 0.000961265C395.251 0.000961265 394.095 1.15836 394.095 2.58492V35.4112C394.095 36.8378 395.251 37.9952 396.675 37.9952C398.1 37.9952 399.256 36.8378 399.256 35.4112ZM431.284 8.96408L423.089 0.758462C422.605 0.273969 421.948 0.000961265 421.265 0.000961265H404.874C403.45 0.000961265 402.294 1.15836 402.294 2.58492C402.294 4.01148 403.45 5.16888 404.874 5.16888H420.197L425.811 10.7905L420.197 16.4122H404.874C403.45 16.4122 402.294 17.5696 402.294 18.9962C402.294 20.4227 403.45 21.5801 404.874 21.5801H420.197L425.811 27.2018L420.197 32.8234H404.874C403.45 32.8234 402.294 33.9808 402.294 35.4074C402.294 36.834 403.45 37.9913 404.874 37.9913H421.265C421.948 37.9913 422.605 37.7183 423.089 37.2338L431.284 29.0282C432.294 28.017 432.294 26.3827 431.284 25.3715L424.913 18.9923L431.284 12.6132C432.294 11.6096 432.294 9.97536 431.284 8.96408ZM462.244 0.000961265C462.927 0.000961265 463.584 0.273969 464.068 0.758462L472.263 8.96408C472.747 9.44857 473.02 10.1061 473.02 10.7905V27.2056C473.02 28.6322 471.864 29.7896 470.439 29.7896C469.014 29.7896 467.858 28.6322 467.858 27.2056V11.8633L461.176 5.17273H446.921L440.239 11.8633V26.1328L446.921 32.8234H462.244C463.669 32.8234 464.825 33.9808 464.825 35.4074C464.825 36.834 463.669 37.9913 462.244 37.9913H445.854C445.17 37.9913 444.513 37.7183 444.03 37.2338L435.834 29.0282C435.351 28.5437 435.078 27.8862 435.078 27.2018V10.7905C435.078 10.1061 435.351 9.44857 435.834 8.96408L444.03 0.758462C444.513 0.273969 445.17 0.000961265 445.854 0.000961265H462.244ZM505.804 19V26.1328L513.243 33.5848C514.253 34.5961 514.253 36.2341 513.243 37.2415C512.739 37.7453 512.079 37.999 511.418 37.999C510.758 37.999 510.097 37.7453 509.594 37.2415L502.156 29.7934H487.905L480.466 37.2415C479.456 38.2528 477.824 38.2528 476.814 37.2415C475.804 36.2303 475.804 34.5922 476.814 33.5848L485.009 25.3792C485.493 24.8947 486.15 24.6217 486.833 24.6217H500.643V19C500.643 17.5734 501.799 16.416 503.223 16.416C504.648 16.416 505.804 17.5734 505.804 19Z" fill="url(#paint0_linear)"/>
<defs>
<linearGradient id="paint0_linear" x1="144.5" y1="-64" x2="176.272" y2="64.8233" gradientUnits="userSpaceOnUse">
<stop stop-color="#FFF500"/>
<stop offset="0.551687" stop-color="#00FF5D"/>
<stop offset="0.911083" stop-color="#FF6BBE"/>
</linearGradient>
</defs>
</svg>
