<svg width="65" height="38" viewBox="0 0 65 38" fill="none" xmlns="http://www.w3.org/2000/svg">
<path fill-rule="evenodd" clip-rule="evenodd" d="M34.9923 3.62257L36 8.52063L24.0841 10L23 0L34.9923 3.62257Z" fill="#44C8F5"/>
<path fill-rule="evenodd" clip-rule="evenodd" d="M56.7608 36L57 30.6163L45 28L45.871 33.9976L56.7608 36Z" fill="#44C8F5"/>
<path fill-rule="evenodd" clip-rule="evenodd" d="M0 13.1375L13.8945 38L45 33.5314L44.9122 32.5854L26.0891 30.1895L24.2507 10L0 13.1375Z" fill="#0092DC"/>
<path fill-rule="evenodd" clip-rule="evenodd" d="M35.6641 9L44.2988 27.9139L45 34L25.8653 30.66L24 10.4823L35.6641 9Z" fill="#0062A1"/>
<path fill-rule="evenodd" clip-rule="evenodd" d="M65 0L61.294 31L56.705 30.3141L57.6247 10.7921L35.3248 3.87267L35 2.28627L65 0Z" fill="#FAFF00"/>
<path fill-rule="evenodd" clip-rule="evenodd" d="M35 5L39.6672 28.2335L56.0927 31L57 11.804L35 5Z" fill="#00BC89"/>
<path fill-rule="evenodd" clip-rule="evenodd" d="M51.8536 13.1463C51.9503 13.2439 52 13.3631 52 13.4986C52 13.6369 51.9503 13.7561 51.8536 13.8537C51.7541 13.9512 51.6381 14 51.5 14C51.3619 14 51.2431 13.9512 51.1464 13.8537C51.0497 13.7561 51 13.6396 51 13.4986C51 13.3604 51.0497 13.2439 51.1464 13.1463C51.2459 13.0488 51.3619 13 51.5 13C51.6381 13 51.7569 13.0488 51.8536 13.1463ZM51.8039 13.1978C51.7155 13.1138 51.616 13.0705 51.4972 13.0705C51.3785 13.0705 51.2762 13.1138 51.1934 13.1978C51.1077 13.2818 51.0663 13.3821 51.0663 13.5014C51.0663 13.6206 51.1077 13.7236 51.1934 13.8076C51.2762 13.8916 51.3785 13.935 51.4972 13.935C51.6188 13.935 51.721 13.8916 51.8039 13.8076C51.8867 13.7236 51.9309 13.6206 51.9309 13.5014C51.9309 13.3821 51.8867 13.2818 51.8039 13.1978ZM51.6298 13.3902C51.6298 13.4336 51.6105 13.4634 51.5746 13.477C51.5525 13.4851 51.5249 13.4905 51.4834 13.4905H51.395V13.29H51.4779C51.5304 13.29 51.5691 13.2981 51.5939 13.3117C51.6188 13.3252 51.6298 13.3523 51.6298 13.3902ZM51.2956 13.7751V13.2249H51.4834C51.5525 13.2249 51.6022 13.2331 51.6354 13.2466C51.6934 13.2683 51.721 13.3144 51.721 13.3848C51.721 13.4336 51.7017 13.4688 51.6685 13.4932C51.6519 13.5068 51.6215 13.5149 51.5884 13.5203C51.6326 13.5257 51.663 13.5447 51.6823 13.5745C51.7044 13.6043 51.7127 13.6314 51.7127 13.6612V13.6992L51.7155 13.7398L51.721 13.7669L51.7238 13.7751H51.6326L51.6298 13.7669L51.6271 13.7453V13.7019C51.6271 13.6369 51.6105 13.5962 51.5773 13.5745C51.5552 13.5637 51.5193 13.5583 51.4696 13.5583H51.395V13.7751H51.2956Z" fill="white"/>
<path fill-rule="evenodd" clip-rule="evenodd" d="M23.7016 17.4429C22.5896 16.2653 20.9532 15.5233 18.9687 15.5233C15.8405 15.5233 13.7972 17.9695 13.7972 21.4976C13.7972 25.1167 16.0168 27.4719 19.1179 27.4719C21.1024 27.4719 22.5354 26.8544 24 25.5858V29.6405C22.3907 30.6601 20.7272 31 18.9732 31C13.5396 31 10 27.0985 10 21.5024C10 15.868 13.6797 12 18.9732 12C20.7272 12 22.3048 12.3734 23.7062 13.2399V17.4429H23.7016Z" fill="white"/>
<path fill-rule="evenodd" clip-rule="evenodd" d="M38 27.6344V31H26V13H37.8167V16.3609H29.8971V20.3031H37.1608V23.6031H29.8971V27.6344H38Z" fill="white"/>
<path fill-rule="evenodd" clip-rule="evenodd" d="M39.3038 25.7725C40.6851 26.8256 42.2184 27.6586 44.2453 27.6586C45.8117 27.6586 47.193 27.0985 47.193 25.5858C47.193 24.1927 46.0585 23.6662 44.1551 23.1109C40.5047 22.0912 39 20.545 39 17.4477C39 13.9531 41.7009 12 45.0759 12C47.1313 12 48.6361 12.5266 49.9225 13.3595V17.2275C48.4794 16.0499 47.0079 15.3414 45.1994 15.3414C43.6329 15.3414 42.7737 16.1169 42.7737 17.261C42.7737 18.5631 43.818 19.0849 45.9351 19.6737C49.5854 20.7269 51 22.3641 51 25.4613C51 29.3006 47.9953 31 44.25 31C42.2563 31 40.4763 30.4447 39.3085 29.6692V25.7725H39.3038Z" fill="white"/>
</svg>
