<svg width="28" height="28" viewBox="0 0 28 28" fill="none" xmlns="http://www.w3.org/2000/svg">
<path fill-rule="evenodd" clip-rule="evenodd" d="M14 0C21.7324 0 28 6.2685 28 14C28 21.7316 21.7324 28 14 28C6.26754 28 0 21.7315 0 14C0 6.26859 6.26763 0 14 0Z" fill="url(#paint0_linear)"/>
<path fill-rule="evenodd" clip-rule="evenodd" d="M10.6439 9.331C10.6439 10.0555 10.0559 10.6435 9.33134 10.6435C8.60683 10.6435 8.0188 10.0556 8.0188 9.3311C8.0188 8.60658 8.60683 8.01855 9.33134 8.01855C10.0559 8.01855 10.6439 8.60649 10.6439 9.331ZM18.2456 11.2141C16.9733 11.2141 15.8349 11.6788 15.0274 12.7043V11.4881H12.3962V20.2547H15.0274V15.5139C15.0274 14.512 15.9453 13.5346 17.095 13.5346C18.2447 13.5346 18.5283 14.512 18.5283 15.4894V20.2538H21.1498V15.2943C21.1497 11.8494 19.5187 11.2141 18.2456 11.2141ZM8.03271 20.2549H10.6542V11.5171H8.03271V20.2549Z" fill="black"/>
<defs>
<linearGradient id="paint0_linear" x1="0" y1="0" x2="0" y2="28" gradientUnits="userSpaceOnUse">
<stop stop-color="#6DD400"/>
<stop offset="1" stop-color="#F7B500"/>
</linearGradient>
</defs>
</svg>
